<?xml version="1.0" encoding="utf-8"?>
<!-- Generator: Adobe Illustrator 19.0.0, SVG Export Plug-In . SVG Version: 6.00 Build 0)  -->
<svg version="1.1" id="Capa_1" xmlns="http://www.w3.org/2000/svg" xmlns:xlink="http://www.w3.org/1999/xlink" x="0px" y="0px"
	 viewBox="0 0 872.4 35" style="enable-background:new 0 0 872.4 35;" xml:space="preserve">
<style type="text/css">
	.st0{display:none;fill:#98BB6E;}
	.st1{display:none;fill:#5B762E;}
	.st2{display:none;fill:#E0E2E3;}
	.st3{fill:#5B762E;}
</style>
<polygon id="XMLID_7_" class="st0" points="398.7,-142 316.7,-188 338.2,-223 438.7,-166.2 "/>
<polygon id="XMLID_6_" class="st0" points="532.7,-190.5 402.9,-262 442.7,-286 594.2,-198.5 "/>
<polygon id="XMLID_8_" class="st1" points="446.1,-238.3 380.2,-198.5 338.2,-223 402.9,-262 "/>
<polygon id="XMLID_3_" class="st1" points="433,-180.3 474.2,-206 555.3,-159 534.6,-124.3 "/>
<ellipse id="XMLID_10_" class="st2" cx="432.2" cy="-41.9" rx="97.3" ry="6.9"/>
<g id="XMLID_15_">
	<path id="XMLID_16_" class="st3" d="M32.3,22.8c0,4.5-4.3,6.7-12.9,6.7H2.2C0.7,29.6,0,29,0,27.8s0.7-1.7,2.2-1.7h17.2
		c5.5,0,8.3-1.2,8.3-3.5v-3c0-2.3-2.6-3.4-7.8-3.4h-8C4.1,16.1,0.2,14,0.2,9.8V6.7c0-4.4,4-6.5,11.9-6.5h4.8C18.3,0.2,19,0.8,19,2
		c0,1.2-0.7,1.7-2.1,1.7h-4.7c-4.9,0-7.3,1.1-7.3,3.2v2.6c0,2.1,2.3,3.1,7,3.1h7.7c8.5,0,12.8,2.2,12.8,6.7V22.8z"/>
	<path id="XMLID_18_" class="st3" d="M74.6,11.9c0,5.5-4.4,8.2-13.2,8.2H44.1V28c0,1.2-0.8,1.8-2.3,1.8c-1.5,0-2.2-0.6-2.2-1.8V1.7
		c0-1,0.7-1.5,2-1.5h19.9c8.8,0,13.2,2.7,13.2,8.2V11.9z M44.1,16.6h17.4c5.7,0,8.5-1.6,8.5-4.8V8.5c0-3.2-2.8-4.8-8.4-4.8H44.5
		c-0.2,0-0.3,0.1-0.3,0.3V16.6z"/>
	<path id="XMLID_21_" class="st3" d="M94.2,29.6c-8.3,0-12.4-2.7-12.4-8.1V8.2c0-5.3,4.1-8,12.2-8h6.1c1.4,0,2.1,0.6,2.1,1.7
		c0,1.2-0.7,1.7-2.1,1.7h-6c-5.1,0-7.7,1.5-7.7,4.6v4.8h25.3c1.4,0,2,0.6,2,1.7c0,1.1-0.7,1.7-2,1.7H86.3v4.9c0,3.2,2.7,4.8,8.1,4.8
		h17.2c1.4,0,2.2,0.6,2.2,1.7s-0.7,1.7-2.2,1.7H94.2z"/>
	<path id="XMLID_23_" class="st3" d="M133.6,29.6c-8.3,0-12.4-2.7-12.4-8.1V8.2c0-5.3,4.1-8,12.2-8h16.3c1.4,0,2.1,0.6,2.1,1.7
		c0,1.2-0.7,1.7-2.1,1.7h-16.2c-5.1,0-7.7,1.5-7.7,4.6v13c0,3.2,2.7,4.8,8.1,4.8h15.8c1.4,0,2.1,0.6,2.1,1.7s-0.7,1.7-2.1,1.7H133.6
		z"/>
	<path id="XMLID_25_" class="st3" d="M159.2,1.8c0-1.2,0.8-1.8,2.4-1.8c1.5,0,2.2,0.6,2.2,1.8V28c0,1.2-0.8,1.8-2.3,1.8
		c-1.5,0-2.2-0.6-2.2-1.8V1.8z"/>
	<path id="XMLID_27_" class="st3" d="M200.6,21.7h-21.4l-4.4,6.8c-0.5,0.8-1.3,1.2-2.2,1.2c-0.7,0-1.3-0.1-1.7-0.4
		c-0.4-0.3-0.6-0.7-0.6-1.3c0-0.2,0-0.4,0.1-0.6c0.1-0.2,0.2-0.4,0.4-0.7l16.8-25.6c0.3-0.4,0.6-0.7,1-0.8c0.4-0.2,0.9-0.3,1.3-0.3
		c1,0,1.7,0.4,2.2,1.1L209,26.7c0.2,0.3,0.4,0.5,0.4,0.7c0.1,0.2,0.1,0.4,0.1,0.6c0,0.6-0.2,1-0.6,1.3c-0.4,0.3-1,0.4-1.7,0.4
		c-0.9,0-1.6-0.4-2.2-1.2L200.6,21.7z M181.3,18.5h17.2L189.9,5L181.3,18.5z"/>
	<path id="XMLID_30_" class="st3" d="M227.1,29.6c-8.3,0-12.4-2.8-12.4-8.3V1.8c0-1.2,0.7-1.8,2.2-1.8c1.6,0,2.3,0.6,2.3,1.8v19.3
		c0,3.3,2.7,5,8.1,5h17.6c1.4,0,2.1,0.6,2.1,1.7s-0.7,1.7-2.1,1.7H227.1z"/>
	<path id="XMLID_32_" class="st3" d="M271.6,0c0.5,0,0.8,0.1,1.2,0.2c0.3,0.2,0.7,0.4,1.1,0.7l25.6,22.6V1.7c0-1.2,0.8-1.7,2.3-1.7
		c1.5,0,2.3,0.6,2.3,1.7V28c0,1.2-0.8,1.8-2.4,1.8c-0.5,0-0.9-0.1-1.2-0.3c-0.3-0.2-0.7-0.4-1-0.7L273.8,6.2V28
		c0,1.2-0.8,1.8-2.3,1.8c-1.5,0-2.2-0.6-2.2-1.8V1.8C269.2,0.6,270,0,271.6,0z"/>
	<path id="XMLID_34_" class="st3" d="M324.8,29.6c-8.3,0-12.4-2.8-12.4-8.3V1.8c0-1.2,0.8-1.8,2.3-1.8c1.5,0,2.3,0.6,2.3,1.8v19.3
		c0,3.3,2.7,5,8.1,5h9.2c5.3,0,8-1.7,8-5V1.8c0-1.2,0.8-1.8,2.3-1.8c1.5,0,2.3,0.6,2.3,1.8v19.5c0,5.5-4.1,8.3-12.4,8.3H324.8z"/>
	<path id="XMLID_36_" class="st3" d="M366.9,3.7h-11.6c-1.4,0-2.1-0.6-2.1-1.7c0-1.2,0.7-1.7,2.1-1.7h27.7c1.4,0,2.2,0.6,2.2,1.7
		c0,1.2-0.7,1.8-2.2,1.8h-11.5V28c0,1.2-0.7,1.8-2.2,1.8c-1.6,0-2.3-0.6-2.3-1.8V3.7z"/>
	<path id="XMLID_38_" class="st3" d="M396.2,18.1V28c0,1.2-0.8,1.8-2.3,1.8c-1.5,0-2.2-0.6-2.2-1.8V1.7c0-1,0.7-1.5,2-1.5h19.9
		c8.8,0,13.2,2.4,13.2,7.2v3.1c0,4.7-4.4,7.1-13.2,7.1h-10.1l19.7,8.7c0.8,0.4,1.3,0.9,1.3,1.7c0,0.6-0.2,1-0.6,1.3
		c-0.4,0.3-1,0.5-1.7,0.5c-0.3,0-0.6,0-0.8-0.1c-0.2-0.1-0.5-0.2-0.8-0.3L396.2,18.1z M396.2,14.4h17.4c5.7,0,8.5-1.3,8.5-3.9V7.5
		c0-2.5-2.8-3.8-8.4-3.8h-17.1c-0.2,0-0.3,0.1-0.3,0.3V14.4z"/>
	<path id="XMLID_41_" class="st3" d="M434.2,1.8c0-1.2,0.8-1.8,2.4-1.8c1.5,0,2.2,0.6,2.2,1.8V28c0,1.2-0.8,1.8-2.3,1.8
		c-1.5,0-2.2-0.6-2.2-1.8V1.8z"/>
	<path id="XMLID_43_" class="st3" d="M459.5,29.6c-8.3,0-12.4-2.7-12.4-8.1V8.2c0-5.3,4.1-8,12.2-8h6.1c1.4,0,2.1,0.6,2.1,1.7
		c0,1.2-0.7,1.7-2.1,1.7h-6c-5.1,0-7.7,1.5-7.7,4.6v4.8h25.3c1.4,0,2,0.6,2,1.7c0,1.1-0.7,1.7-2,1.7h-25.3v4.9
		c0,3.2,2.7,4.8,8.1,4.8h17.2c1.4,0,2.2,0.6,2.2,1.7s-0.7,1.7-2.2,1.7H459.5z"/>
	<path id="XMLID_45_" class="st3" d="M489,0c0.5,0,0.8,0.1,1.2,0.2c0.3,0.2,0.7,0.4,1.1,0.7l25.6,22.6V1.7c0-1.2,0.8-1.7,2.3-1.7
		c1.5,0,2.3,0.6,2.3,1.7V28c0,1.2-0.8,1.8-2.4,1.8c-0.5,0-0.9-0.1-1.2-0.3c-0.3-0.2-0.7-0.4-1-0.7L491.2,6.2V28
		c0,1.2-0.8,1.8-2.3,1.8c-1.5,0-2.2-0.6-2.2-1.8V1.8C486.6,0.6,487.4,0,489,0z"/>
	<path id="XMLID_47_" class="st3" d="M541.5,3.7h-11.6c-1.4,0-2.1-0.6-2.1-1.7c0-1.2,0.7-1.7,2.1-1.7h27.7c1.4,0,2.2,0.6,2.2,1.7
		c0,1.2-0.7,1.8-2.2,1.8h-11.5V28c0,1.2-0.8,1.8-2.2,1.8c-1.6,0-2.3-0.6-2.3-1.8V3.7z"/>
	<path id="XMLID_49_" class="st3" d="M597.4,22.8c0,4.5-4.3,6.7-12.9,6.7h-17.2c-1.4,0-2.2-0.6-2.2-1.7s0.7-1.7,2.2-1.7h17.2
		c5.5,0,8.3-1.2,8.3-3.5v-3c0-2.3-2.6-3.4-7.8-3.4h-8c-7.7,0-11.6-2.1-11.6-6.3V6.7c0-4.4,4-6.5,11.9-6.5h4.8c1.4,0,2.1,0.6,2.1,1.7
		c0,1.2-0.7,1.7-2.1,1.7h-4.7c-4.9,0-7.3,1.1-7.3,3.2v2.6c0,2.1,2.3,3.1,7,3.1h7.7c8.5,0,12.8,2.2,12.8,6.7V22.8z"/>
	<path id="XMLID_51_" class="st3" d="M632.8,29.6c-8.3,0-12.4-2.8-12.4-8.3V1.8c0-1.2,0.8-1.8,2.3-1.8c1.5,0,2.3,0.6,2.3,1.8v19.3
		c0,3.3,2.7,5,8.1,5h9.2c5.3,0,8-1.7,8-5V1.8c0-1.2,0.8-1.8,2.3-1.8c1.5,0,2.3,0.6,2.3,1.8v19.5c0,5.5-4.1,8.3-12.4,8.3H632.8z"/>
	<path id="XMLID_53_" class="st3" d="M694.6,22.8c0,4.5-4.3,6.7-12.9,6.7h-17.2c-1.4,0-2.2-0.6-2.2-1.7s0.7-1.7,2.2-1.7h17.2
		c5.5,0,8.3-1.2,8.3-3.5v-3c0-2.3-2.6-3.4-7.8-3.4h-8c-7.7,0-11.6-2.1-11.6-6.3V6.7c0-4.4,4-6.5,11.9-6.5h4.8c1.4,0,2.1,0.6,2.1,1.7
		c0,1.2-0.7,1.7-2.1,1.7h-4.7c-4.9,0-7.3,1.1-7.3,3.2v2.6c0,2.1,2.3,3.1,7,3.1h7.7c8.5,0,12.8,2.2,12.8,6.7V22.8z"/>
	<path id="XMLID_55_" class="st3" d="M730.3,21.7h-21.4l-4.4,6.8c-0.5,0.8-1.3,1.2-2.2,1.2c-0.7,0-1.3-0.1-1.7-0.4
		c-0.4-0.3-0.6-0.7-0.6-1.3c0-0.2,0-0.4,0.1-0.6c0.1-0.2,0.2-0.4,0.4-0.7l16.8-25.6c0.3-0.4,0.6-0.7,1-0.8c0.4-0.2,0.9-0.3,1.3-0.3
		c1,0,1.7,0.4,2.2,1.1l16.8,25.5c0.2,0.3,0.4,0.5,0.4,0.7c0.1,0.2,0.1,0.4,0.1,0.6c0,0.6-0.2,1-0.6,1.3c-0.4,0.3-1,0.4-1.7,0.4
		c-0.9,0-1.6-0.4-2.2-1.2L730.3,21.7z M711,18.5h17.2L719.6,5L711,18.5z"/>
	<path id="XMLID_58_" class="st3" d="M748.5,33.5c-0.3,1-1,1.5-2,1.5c-1.1,0-1.7-0.5-1.7-1.4c0-0.3,0-0.8,0.1-1.6l0.4-4.2
		c0.1-0.7,0.3-1.1,0.6-1.5c0.4-0.3,0.9-0.5,1.7-0.5c1.6,0,2.4,0.6,2.4,1.9c0,0.2,0,0.5-0.1,0.7c-0.1,0.2-0.1,0.5-0.3,0.9L748.5,33.5
		z"/>
	<path id="XMLID_60_" class="st3" d="M773.8,1.8c0-1.2,0.8-1.8,2.4-1.8c1.5,0,2.2,0.6,2.2,1.8V28c0,1.2-0.8,1.8-2.3,1.8
		c-1.5,0-2.2-0.6-2.2-1.8V1.8z"/>
	<path id="XMLID_62_" class="st3" d="M789.1,0c0.5,0,0.8,0.1,1.2,0.2c0.3,0.2,0.7,0.4,1.1,0.7L817,23.5V1.7c0-1.2,0.8-1.7,2.3-1.7
		c1.5,0,2.3,0.6,2.3,1.7V28c0,1.2-0.8,1.8-2.4,1.8c-0.5,0-0.9-0.1-1.2-0.3c-0.3-0.2-0.7-0.4-1-0.7L791.4,6.2V28
		c0,1.2-0.8,1.8-2.3,1.8c-1.5,0-2.2-0.6-2.2-1.8V1.8C786.8,0.6,787.6,0,789.1,0z"/>
	<path id="XMLID_64_" class="st3" d="M842.3,29.6c-8.3,0-12.4-2.7-12.4-8.1V8.2c0-5.3,4.1-8,12.2-8h16.3c1.4,0,2.1,0.6,2.1,1.7
		c0,1.2-0.7,1.7-2.1,1.7h-16.2c-5.1,0-7.7,1.5-7.7,4.6v13c0,3.2,2.7,4.8,8.1,4.8h15.8c1.4,0,2.1,0.6,2.1,1.7s-0.7,1.7-2.1,1.7H842.3
		z"/>
	<path id="XMLID_69_" class="st3" d="M872.4,27.7c0,1.4-0.8,2.1-2.5,2.1c-1.7,0-2.5-0.7-2.5-2.1c0-1.4,0.8-2.1,2.5-2.1
		C871.6,25.6,872.4,26.3,872.4,27.7z"/>
</g>
<polygon id="XMLID_66_" class="st0" points="491.4,-148 426.1,-108.7 469.4,-84.1 534.6,-124.3 "/>
<polygon id="XMLID_67_" class="st1" points="337.7,-159 275.2,-148.5 428.7,-59 469.4,-84.1 426.1,-108.7 "/>
<rect id="XMLID_14_" x="-16.7" y="-353.1" class="st1" width="75.9" height="75.9"/>
<rect id="XMLID_11_" x="75.8" y="-353.1" class="st0" width="75.9" height="75.9"/>
</svg>
