<?xml version="1.0" encoding="utf-8"?>
<!-- Generator: Adobe Illustrator 19.0.0, SVG Export Plug-In . SVG Version: 6.00 Build 0)  -->
<svg version="1.1" xmlns="http://www.w3.org/2000/svg" xmlns:xlink="http://www.w3.org/1999/xlink" x="0px" y="0px"
	 viewBox="0 0 382.3 525.3" style="enable-background:new 0 0 382.3 525.3;" xml:space="preserve">
<style type="text/css">
	.st0{display:none;}
	.st1{display:inline;fill:url(#SVGID_1_);}
	.st2{fill:#D39C42;}
	.st3{fill:#F9B233;}
	.st4{display:inline;}
	.st5{fill-rule:evenodd;clip-rule:evenodd;}
</style>
<g id="BACKGROUND" class="st0">
	<radialGradient id="SVGID_1_" cx="380.3046" cy="252.65" r="401.3199" gradientUnits="userSpaceOnUse">
		<stop  offset="0.8087" style="stop-color:#161412;stop-opacity:0"/>
		<stop  offset="1" style="stop-color:#161412;stop-opacity:5.000000e-002"/>
	</radialGradient>
	<rect x="-20.6" y="-149" class="st1" width="801.9" height="803.4"/>
</g>
<g id="OBJECTS">
	<g>
		<g>
			<path class="st2" d="M164.4,203.1c0.9,5.1,5.7,20.5,10.2,24c4.6,3.5,6.7,5.2,10.4,6.7c5.5,2.2,5.8,4,7.7,6.9
				c0,0-0.1-15.4-2.6-20.1c-3.6-6.9-11-9-13.8-10.2c-2.8-1.1-8.7-3.8-9.9-10c-1.3-6.2-12.1-47.3-14.9-48c0,0-3-1.8,0,4.3
				c3,6.1,6.5,19.8,6.6,22.1C158.1,181,163.5,198,164.4,203.1z"/>
			<path class="st2" d="M186.3,256.1c5.5,2.2,5.8,4,7.7,6.9c0,0-0.1-15.4-2.6-20.1c-3.6-6.9-11-9-13.8-10.2
				c-2.8-1.1-5.2-3.6-6.8-5.9c-2.6-3.6,2.2,20.2,5.1,22.5C180.4,253,182.6,254.7,186.3,256.1z"/>
			<path class="st2" d="M180,268.7c3.6,2.2,5.4,3.1,8.4,3.8c4.4,1.1,4.7,2.3,6.3,4.1c0,0-0.5-10.6-2.6-13.7c-3-4.5-9-5.7-11.3-6.3
				c-2.2-0.6-3.7-2.3-5-3.7C173.7,250.6,174.2,265.2,180,268.7z"/>
			<path class="st2" d="M158.9,153.3c0.5,2.2,4.5,18.8,5.4,24c0.9,5.1,3.6,23.7,8.2,27.2c4.6,3.5,6.7,5.2,10.4,6.7
				c5.5,2.2,5.8,4,7.7,6.9c0,0-0.1-15.4-2.6-20.1c-3.6-6.9-11-9-13.8-10.2c-2.8-1.1-5.4-3.3-7.3-13c-7.1-36.8-19.2-63.8-22.1-64.5
				c0,0-2.4-1.9,0.6,4.2C148.4,120.6,157.6,147.7,158.9,153.3z"/>
			<path class="st2" d="M161.1,138.2c0.9,5.1,7.2,41.2,11.8,44.7c4.6,3.5,5,3.8,8,5.2c5.3,2.6,5.8,4,7.7,6.9c0,0-0.6-14.3-3.1-19
				c-3.6-6.9-10.5-10.1-13.4-11.3c-2.8-1.1-5-10.3-6.8-19.9c-7.1-36.8-15.5-57.8-26.9-70.5c0,0-4.4-4.8-1.4,1.3
				c1.7,3.4,14.3,25,17,36.3C154.4,114.1,160.2,133.1,161.1,138.2z"/>
			<path class="st2" d="M206.3,223.4c-2.5,1.6-9.5,5.2-11.7,12.6c-1.5,5.1,1.2,20.2,1.2,20.2c1.3-3.2,1.3-5,6.3-8.2
				c3.4-2.2,5.1-4.3,9-8.6c3.9-4.3,5.7-20.3,5.6-25.4c-0.1-5.2,2-22.8,1.7-25.1c-0.4-2.3,0.5-16.4,2.3-23c1.8-6.6-0.8-4.2-0.8-4.2
				c-2.7,1.2-5.6,43.7-5.7,50C214.1,218,208.9,221.7,206.3,223.4z"/>
			<path class="st2" d="M212.9,240.4c-1.2,2.2-2.5,4.9-4.8,6c-2.2,1.1-8.1,3.7-10.9,10.5c-1.9,4.6-1.8,19.7-1.8,19.7
				c1.5-2.8,1.7-4.6,6-6.7c2.9-1.4,4.7-3,8.2-6.6C215.2,257.6,214.9,236.8,212.9,240.4z"/>
			<path class="st2" d="M204.6,200.1c-2.5,1.7-9.4,5.3-11.6,12.7c-1.5,5.1,1.4,20.2,1.4,20.2c1.3-3.2,1.3-5,6.2-8.2
				c3.4-2.2,5.1-4.3,8.9-8.6c3.8-4.3,2.8-23.1,2.7-28.3c-0.1-5.2,0.5-22.3,0.6-24.5c0.2-5.7,3.8-34.1,5.6-40.6
				c1.7-6.6-0.3-4.2-0.3-4.2c-2.7,1.2-9.3,30.1-8.9,67.6C209.2,195.8,207.1,198.4,204.6,200.1z"/>
			<path class="st2" d="M202.7,174.9c-2.8,4.7-8.7,8.3-11.1,15.7c-1.6,5.1,0.7,19.6,0.7,19.6c1.4-3.2,2.5-4.3,7.3-7.7
				c2.7-2,4-3.5,6.3-8.8c3.9-9.4,1.9-27.3,0-44.1c-0.6-5.2-3.8-30.9-5.5-44.8c-1.4-11.5-2-32.5-1-36.1c1.9-6.5-1.5-0.9-1.5-0.9
				c-6.8,15.3,3.2,51.6,5,89C203.3,166.8,204.2,172.3,202.7,174.9z"/>
			<path class="st2" d="M193.9,152.8c-4.7,5.4-6.9,12.5-6.9,18.6c0,5.3,3.2,19,3.2,19c0.9-3.4,0.9-4.8,5.1-9c2.4-2.3,5.1-6,5.9-7.5
				c2.6-5.1-3.5-40.8-4.3-45.9c-0.8-5.1-3.8-25.7-4.1-27.9c-1.1-11.5-6.9-54.2-7.2-60c-0.3-6.8-1.8-0.8-1.8-0.8
				c-3.2,13,4.5,58.7,9.6,95.8C194.9,144.8,195.9,150.5,193.9,152.8z"/>
			<path class="st2" d="M142.1,61.3c2.6,4.9,6.2,14.1,6.8,15.1c0.6,1,6.9,17.9,7.7,19.6c0.7,1.8,5.3,19.9,5.9,22
				c1.3,4.9,4.5,21.9,5,24.9c0.4,3,2.6,14.4,5.4,18.6c2.8,4.2,10,6.9,10,6.9s5.3-9.9,6-11.7c-1.9-3.6-5.1-6-11.2-10.7
				c-1.2-0.9-6.6-4.6-7.5-8.2c-0.9-3.6-3.1-13.7-4.4-19c-1.3-5.3-5.2-22.7-8.1-30c-2.8-7.1-5.6-13.1-8-18.9
				c-2.3-5.8-8.3-15.3-9.5-17.5c-1.2-2.2-6.1-8.5-7.7-10.4c-1.6-2-2.2,0-1.3,1C132,43.8,139.3,56.2,142.1,61.3z"/>
			<path class="st2" d="M153.7,30.3c1.1,2.4,8.9,26.5,9.8,28.8c0.9,2.2,8.5,31.2,8.7,32.4c0.3,1.2,5.8,28.4,6.2,31
				c0.4,2.6-0.1,7.1-1.3,10.8c-1.2,3.7-1.5,9.2-1.5,9.2c2.9,0.3,14,11.6,14,11.6s2-3.1,2.8-4.6c0.8-1.5,0.5-8.6-0.3-12.4
				c-0.8-3.8-4.7-8-5.5-9c-0.8-1-3.8-5-4-7.4c-0.2-2.4-9.7-39.5-10.2-42.7c-0.5-3.2-8-25.4-10.2-32.6c-2.2-7.1-12.9-31.9-13.4-33.2
				c-0.6-1.3-2.5-0.3-1.5,1.2C148.3,15,152.6,28,153.7,30.3z"/>
			<path class="st2" d="M295.5,174.1c2.5-4.5,13.2-18.8,14-20.9c0.8-2.1,8.1-14.2,13-18.9c4.8-4.8,2-3.8,2-3.8
				c-2.9-0.3-26.7,35-29.9,40.4c-3.2,5.4-9.6,6-12.7,6.1c-3,0.1-10.8-0.3-16.4,5c-3.9,3.7-9,18.1-9,18.1c2.7-2.1,3.7-3.7,9.5-3.9
				c4-0.2,6.6-1.1,12-2.9C283.5,191.5,293,178.6,295.5,174.1z"/>
			<path class="st2" d="M280.6,194.3c-2.2,1.6-5.3,3.1-8.3,3.3c-3,0.1-10.8-0.3-16.4,5c-3.9,3.7-9,18.1-9,18.1
				c2.7-2.1,3.7-3.7,9.5-3.9c4-0.2,6.6-1,12-2.9C271.9,212.6,284.2,191.7,280.6,194.3z"/>
			<path class="st2" d="M266.3,217.1c-1.7,0.9-3.6,2.1-5.9,1.9c-2.3-0.2-8.4-1-12.7,2.3c-3,2.2-7,12.1-7,12.1
				c2.1-1.2,2.8-2.3,7.3-1.8c3,0.3,5,0,9.2-0.9C263.7,229.2,269.1,215.6,266.3,217.1z"/>
			<path class="st2" d="M345.7,93.1c-2.9-0.3-22.6,21.3-41.4,53.7c-4.9,8.5-8.1,9.7-11.1,9.9c-3,0.1-10.8-0.3-16.4,5
				c-3.9,3.7-9,18.1-9,18.1c2.7-2.1,3.7-3.7,9.5-3.9c4-0.2,6.6-1.1,12-2.9c5.5-1.8,14.2-18.5,16.7-23c2.5-4.5,11.7-18.9,13-20.8
				c3.1-4.9,20.3-28.3,25.1-33.1C349,91.2,345.7,93.1,345.7,93.1z"/>
			<path class="st2" d="M364.3,62.3c-14.9,8.2-29.8,25.3-48.6,57.7c-4.9,8.5-10,16.4-13,16.6c-3,0.1-10.7,1-16.3,6.3
				c-3.9,3.7-9.1,16.9-9.1,16.9c2.7-2.1,3.7-3.2,9.5-3.9c3.3-0.4,3.8-0.5,9.2-2.3c5.5-1.8,23.3-33.8,25.9-38.3
				c2.5-4.5,14.2-20.6,15.4-22.5c6.2-9.8,24.9-26.4,27.6-29.1C369.7,58.8,364.3,62.3,364.3,62.3z"/>
			<path class="st2" d="M244.5,202.9c3.6,4.6,3.1,6.3,3.3,9.8c0,0,7.6-13.4,7.8-18.7c0.3-7.7-5-13.3-6.9-15.7
				c-1.9-2.4-5.6-7.6-3.6-13.6c2-6,13.2-47,11.1-49.1c0,0-1.6-3.1-2.1,3.7c-0.5,6.8-4.3,20.5-5.4,22.5c-1.1,2-4.9,19.3-6.7,24.2
				c-1.8,4.9-5.3,20.6-3.1,25.9C241,197.2,242,199.8,244.5,202.9z"/>
			<path class="st2" d="M236.9,222.6c3.4,3.4,3,5.1,3.5,8.3c0,0,5.1-14.2,4.8-19.2c-0.4-7.2-5.1-11.7-6.8-13.5
				c-1.7-1.8-2.1-4.8-2.5-7.2c-0.7-4-7.8,15.5-4.5,22.7C233.5,218.3,234.7,220.3,236.9,222.6z"/>
			<path class="st2" d="M248.7,171.7c2,5.4,2.9,8,5.3,11.2c3.5,4.7,2.8,6.4,2.9,9.9c0,0,8.1-13.1,8.5-18.4c0.6-7.7-4.6-13.5-6.3-16
				c-1.8-2.5-2.8-5.7,0.7-14.8c13.6-34.9,17.6-64.2,15.5-66.4c0,0-1-2.9-1.7,3.8c-0.7,6.8-7.3,34.5-9.2,40
				c-0.7,2.2-6.2,18.3-8.2,23.2C254.2,149,246.6,166.3,248.7,171.7z"/>
			<path class="st2" d="M263.9,162.6c3.2,4.9,4,6.3,4.1,9.8c0,0,7.3-12.8,7.6-18.1c0.4-7.7-3.9-13.2-4.8-18.6c-0.5-3,2.3-7.8,6.2-17
				c14.9-34.4,37-64.8,36.1-81.5c0,0-1.2-6.5-1.7,0.3c-0.3,3.8-8.3,23.2-13.7,33.4c-6.6,12.4-18.6,35.3-21,39.9
				c-7.7,15-16,31.1-15.6,41.2C261.3,158,262.1,159.9,263.9,162.6z"/>
			<path class="st2" d="M293.8,93.1c-2.7,4.5-21.8,35.2-21.4,40.9c0.1,1.7,1.3,6.1,2.6,9.2c2.3,5.4,1.8,6.8,1.3,10.2
				c0,0,8.2-11.4,10.1-16.3c2.3-5.7,2.9-13,0.6-19.8c-1-2.9,2.2-7.7,7.1-16.2c18.8-32.4,43.3-71.8,45.2-85c0,0,0.9-6.1-1.9,0
				c-2.4,5.3-23.9,42.5-29.3,52.8C307.1,70.7,296.5,88.6,293.8,93.1z"/>
			<path class="st2" d="M380.6,34.5c-2.1,1.4-8.8,5.6-10.7,7.3c-1.9,1.7-10.6,8.7-14.8,13.4c-4.1,4.7-8.8,9.4-13.8,15.3
				c-5.1,5.9-14.5,21.1-17.5,25.7c-2.9,4.6-8.4,13.4-10.4,16.5c-2.1,3.1-8.3,5.2-9.8,5.3c-4.8,0.4-12.4,3.1-12.3,7.2
				c0,1.9-2.8,12.5-2.8,12.5s10.5-0.4,14.5-3.4c4-3.1,9.8-13.1,11.2-15.8c1.4-2.7,10.1-17.6,12.9-21.8c1.2-1.8,11.5-17.4,12.8-18.8
				c1.3-1.4,12.8-15.2,13.7-16c0.9-0.8,7.4-8.3,11.4-12c4.3-3.9,15-14,16.2-14.7C382.4,34.4,382.7,33.2,380.6,34.5z"/>
			<path class="st2" d="M307,92.6c-1,2.2-5.2,5-6.2,5.7c-1.1,0.7-5.7,3.8-7.7,7.2c-2,3.4-3.9,8.6-3.5,10.3c0.3,1.7,0.2,5.1,0.2,5.1
				s10.1-5,13-4.3c0,0,5.2-6.2,5.3-10.1c0-3.9,1.1-8.2,2.3-10.6c1.2-2.4,15.4-26.2,16.1-27.3c0.6-1.1,17.3-25.9,18.9-27.8
				c1.6-1.8,17-22.1,18.7-23.9c1.8-1.9,9.5-13.2,10.9-14.3c1.5-1.1,0.6-2.2-0.4-1.1c-1,1.1-19.2,20.9-23.6,26.9
				c-4.4,6-18.8,24.6-20.3,27.4C329.1,58.5,308,90.4,307,92.6z"/>
			<path class="st2" d="M60.9,208c4.9,4.7,13,16.4,13.8,18.5c0.8,2.1,11.7,16.2,14.3,20.7c2.6,4.5,12.4,17.3,17.9,19
				c5.5,1.7,8.1,2.6,12.1,2.7c5.9,0.2,6.8,1.7,9.6,3.8c0,0-5.4-14.4-9.3-18c-5.7-5.2-13.5-4.7-16.5-4.8c-3-0.1-9.4-0.6-12.8-5.9
				c-3.3-5.4-27.6-40.3-30.6-40C59.4,204,56,203.3,60.9,208z"/>
			<path class="st2" d="M116.8,286.5c5.5,1.8,8.1,2.6,12.1,2.7c5.9,0.2,6.8,1.7,9.6,3.8c0,0-5.4-14.4-9.3-18
				c-5.7-5.2-13.5-4.7-16.5-4.8c-3-0.1-6.2-1.6-8.4-3.2C100.6,264.6,113.3,285.4,116.8,286.5z"/>
			<path class="st2" d="M128.3,303.1c4.2,0.8,6.1,1,9.2,0.7c4.5-0.5,5.2,0.5,7.3,1.7c0,0-4.2-9.8-7.1-11.9c-4.3-3.2-10.4-2.3-12.7-2
				c-2.3,0.2-4.3-0.9-6-1.8C116.2,288.3,121.7,301.8,128.3,303.1z"/>
			<path class="st2" d="M78.1,223.3c2.6,4.5,11.6,21,17.1,22.7c5.5,1.7,8.1,2.6,12.1,2.7c5.9,0.2,6.8,1.7,9.6,3.8
				c0,0-5.4-14.4-9.3-18c-5.7-5.2-13.5-4.7-16.5-4.8c-3-0.1-6.2-1.3-11.3-9.7c-19.3-32.1-40-53.3-42.9-52.9c0,0-2.9-1,2,3.7
				c4.9,4.7,22.8,26.9,26,31.8C66.1,204.5,75.5,218.8,78.1,223.3z"/>
			<path class="st2" d="M45.9,166.5c1.3,1.9,13.2,17.8,15.8,22.2c2.6,4.5,21,36.2,26.5,37.9c5.5,1.7,6,1.8,9.3,2.2
				c5.8,0.6,6.8,1.7,9.6,3.8c0,0-5.5-13.2-9.4-16.8c-5.7-5.2-13.4-5.9-16.4-6c-3-0.1-8.2-7.9-13.3-16.4
				c-19.3-32.1-34.5-48.9-49.5-56.9c0,0-5.8-3-0.9,1.7C20.3,140.9,39.6,156.8,45.9,166.5z"/>
			<path class="st2" d="M136,250.7c-1.8,2.4-7.1,8.1-6.7,15.8c0.3,5.3,8.1,18.6,8.1,18.6c0.1-3.5-0.5-5.2,3.1-9.8
				c2.4-3.2,3.3-5.8,5.5-11.1c2.1-5.4-1.7-21-3.5-25.8c-1.8-4.9-5.9-22.1-7.1-24.1c-1.1-2-5.1-15.6-5.7-22.4
				c-0.6-6.8-2.2-3.7-2.2-3.7c-2.1,2.1,9.8,42.9,11.9,48.9C141.5,243,137.8,248.3,136,250.7z"/>
			<path class="st2" d="M148.4,294.8c2.3-2.4,3.3-4.4,5.4-9c3.2-7.2-4.2-26.6-4.9-22.6c-0.4,2.4-0.7,5.5-2.4,7.3
				c-1.7,1.8-6.4,6.3-6.6,13.6c-0.2,5,5.1,19.1,5.1,19.1C145.4,300,145.1,298.3,148.4,294.8z"/>
			<path class="st2" d="M125.3,231c-1.7,2.5-6.8,8.4-6.1,16.1c0.5,5.3,8.8,18.3,8.8,18.3c0-3.5-0.7-5.2,2.7-10
				c2.3-3.3,3.1-5.9,5.1-11.3c1.9-5.4-5.9-22.5-8-27.3c-2-4.8-7.8-20.9-8.5-23c-2-5.4-9-33.1-9.8-39.8c-0.8-6.8-1.8-3.8-1.8-3.8
				c-2,2.1,2.5,31.4,16.6,66.1C128.1,225.2,127.1,228.5,125.3,231z"/>
			<path class="st2" d="M113.2,208.5c-0.9,5.4-5,10.9-4.5,18.6c0.4,5.3,7.9,18,7.9,18c0.1-3.5,0.8-4.9,3.9-9.9
				c1.8-2.8,2.5-4.7,2.6-10.5c0.2-10.2-8.3-26.1-16.2-41c-2.4-4.6-14.9-27.3-21.7-39.6C79.6,134,71.3,114.8,70.9,111
				c-0.7-6.8-1.7-0.3-1.7-0.3c-0.6,16.7,22,46.7,37.4,80.9C110.8,200.7,113.7,205.5,113.2,208.5z"/>
			<path class="st2" d="M89.2,174c5.1,8.4,8.3,13.2,7.4,16.1c-2.1,6.8-1.4,14.2,0.9,19.8c2.1,4.9,10.4,16.2,10.4,16.2
				c-0.5-3.4-1-4.8,1.2-10.3c1.2-3.1,2.3-7.5,2.4-9.2c0.4-5.8-19.3-36.1-22-40.5c-2.7-4.4-13.6-22.1-14.7-24.1
				C69.1,131.9,47,95,44.5,89.8c-3-6.1-1.9,0-1.9,0C44.8,103,69.8,142,89.2,174z"/>
			<path class="st2" d="M338.7,165.4c-10.1,4.3-25.3,16.2-25.3,16.2c-18.3,12.3-58.7,65-58.7,65c-8.2,9.1-23.4,38.4-33,57.9l1.8-7.7
				c0,0,6.1-20.3,8.9-30.9c1.9-7.3,6.3-14.2,8.8-17.8c1-1.2,6.9-5.7,10.4-6.4c6.5-1.4,14.8-13.8,12.1-12.4
				c-1.7,0.9-6.5,3.9-11.1,3.1c-4.3-0.7-8.4,1.2-12.7,4.4c-0.9,0.7-1.8,2-2.6,3.5c0.9-3.4,1.7-6.8,1.6-8.8
				c-0.4-7.2-6.2-11.1-7.9-12.9c-1.7-1.8-2.1-6.7-2.6-9.2c-0.7-4-5.2,12.1-2,19.3c3.9,8.5,5,14.4,4.4,17.8
				c-1.6,11.2-14,49.9-14,49.9L204.6,343c-5.6,16.4-9.1,33.4-11.2,49.3l3.8-46.9c0,0,1-40.7,3.2-51.7c0.6-3.4,3.6-8.6,10.1-15.4
				c5.4-5.7,6.5-22.4,4.5-18.9c-1.2,2.2-3.2,6.7-5.5,7.8c-2.2,1.1-9,2.9-11.7,9.6c-0.7,1.8-1.2,5.3-1.4,8.8
				c-0.3-1.6-0.7-3.2-1.3-4.1c-3-4.5-6.3-7.6-10.6-8.3c-4.6-0.8-8.2-5.2-9.5-6.6c-2.1-2.3,1.6,12.2,7.3,15.6c3.1,1.9,7.1,8,7.7,9.5
				c1.2,4.2,3,12.3,2.4,19.8c-0.8,10.9-1.8,32.1-1.8,32.1l-5.2,50.7l-1.5,24.1c-0.4-1.2-0.8-2.4-1.2-3.6l-12.9-46.4
				c0,0-13-38.5-14.8-49.7c-0.6-3.4,0.4-9.3,4.2-17.9c3.1-7.2-1.6-23.3-2.3-19.3c-0.4,2.4-0.7,7.4-2.4,9.2c-1.7,1.8-7.4,5.8-7.7,13
				c-0.1,2,0.7,5.4,1.7,8.8c-0.8-1.5-1.7-2.7-2.6-3.4c-4.3-3.2-8.5-5-12.8-4.2c-4.6,0.9-9.5-2.1-11.2-2.9
				c-2.8-1.4,5.7,10.9,12.3,12.2c3.6,0.7,9.5,5.1,10.5,6.3c2.6,3.6,7,10.5,9.1,17.7c3,10.5,9.4,30.7,9.4,30.7l2,7.7
				C155,357,139.4,327.9,131,319c0,0-41.2-52-59.7-64c0,0-15.3-11.6-25.5-15.8c-10.2-4.1-19.5-6.2-25.1-5.7c0,0,27.2,12.2,35.6,20.1
				c8.4,7.9,20.7,18,27.9,24.8c8.6,8.2,23.7,27.7,29,34.7c5.7,7.6,22.4,34.7,28.6,43.6c6,8.7,18.4,32.6,21.9,43.3
				c3.6,10.8,12.1,31.6,15.5,40.8c0.2,0.7,0.5,1.4,0.8,2.2c-4.2-6.9-15.1-24.9-17.3-28.7c-2.6-4.3-9.2-11-18.5-17.6
				c-5.3-3.8-21.3-9.6-21.3-9.6s22.9,15,35.4,37.1c8.5,15,22.8,35.6,31.3,47.5c0.9,3.2,1.5,6,1.6,7.7c0.4,4.6,2.7,19,0.4,32.1
				c-0.9,4.9,1.4,13.2,3.9,13.7c2.5,0.5,4.4-0.3,4.6-2.1c0,0-2.9-8.7-0.8-18.7c2.4-11.4,13.2-52.3,18.4-89.1
				c5.1-36.7,30.7-70.2,30.7-70.2s-21,17.2-26.2,25.2c-9.1,14-14.5,26.7-15.7,33.9c-0.7,4.6-3.7,21.9-6,35.5
				c-1.3-8.7-1.7-15.7-1.1-19c2.1-11.7,2.6-18.8,3.4-22c8.3-12,18.2-31.4,26.4-46.6c12.1-22.3,36.5-37.5,36.5-37.5
				s-17.6,5.9-22.8,9.8c-9.2,6.8-15.7,13.6-18.2,17.9c-2.2,3.8-12.8,22-16.9,28.9c0.3-0.8,0.5-1.5,0.8-2.2
				c3.2-9.2,11.4-30.1,14.8-41c3.4-10.7,15.4-34.9,21.2-43.6c6.1-9.1,22.3-36.4,27.9-44.1c5.1-7.1,19.9-26.8,28.4-35.1
				c7-6.9,19.2-17.2,27.5-25.2c8.3-8,35.6-20.9,35.6-20.9C358.4,158.7,348.8,161.1,338.7,165.4z"/>
			<path class="st2" d="M29.1,135.8c0.9,0.8,12.7,14.4,14,15.8c1.3,1.4,11.9,16.9,13.1,18.6c2.9,4.2,11.8,19,13.2,21.6
				c1.4,2.6,7.4,12.6,11.4,15.6c4.1,3,14.6,3.2,14.6,3.2s-3-10.6-3-12.4c0-4.1-7.6-6.7-12.4-7c-1.5-0.1-7.7-2.1-9.9-5.1
				c-2.1-3.1-7.7-11.8-10.7-16.3c-3-4.5-12.7-19.5-17.9-25.4c-5.1-5.7-9.8-10.4-14-15c-4.2-4.7-13.1-11.5-15-13.2
				c-1.9-1.7-8.7-5.8-10.8-7.2c-2.1-1.3-2,0.8-0.9,1.4c1.2,0.7,12.3,9.7,16.7,13.6C21.6,127.7,28.2,135.1,29.1,135.8z"/>
			<path class="st2" d="M6.2,77.4C7.7,78.4,16.2,89.2,18,91c1.8,1.8,17.5,21.8,19.1,23.6c1.6,1.8,18.7,26.4,19.3,27.4
				c0.7,1.1,15.2,24.7,16.5,27c1.3,2.3,2.4,6.7,2.5,10.6c0.1,3.9,5.5,10.6,5.5,10.6c2.8-0.8,13,3.5,13,3.5s-0.1-3.4,0.2-5.1
				c0.3-1.7-1.6-6.9-3.7-10.2c-2.1-3.3-6.8-6.4-7.8-7c-1.1-0.7-5.3-3.4-6.3-5.6c-1-2.2-22.7-33.7-24.3-36.5
				c-1.6-2.8-16.2-21.1-20.8-27.1c-4.5-5.9-23.1-25.5-24-26.5C6.2,74.7,4.7,76.3,6.2,77.4z"/>
		</g>
		<g>
			<path class="st3" d="M164.4,202.1c0.9,5.1,5.7,20.5,10.2,24c4.6,3.5,6.7,5.2,10.4,6.7c5.5,2.2,5.8,4,7.7,6.9
				c0,0-0.1-15.4-2.6-20.1c-3.6-6.9-11-9-13.8-10.2c-2.8-1.1-8.7-3.8-9.9-10c-1.3-6.2-12.1-47.3-14.9-48c0,0-3-1.8,0,4.3
				c3,6.1,6.5,19.8,6.6,22.1C158.1,180,163.5,197,164.4,202.1z"/>
			<path class="st3" d="M186.3,255.1c5.5,2.2,5.8,4,7.7,6.9c0,0-0.1-15.4-2.6-20.1c-3.6-6.9-11-9-13.8-10.2
				c-2.8-1.1-5.2-3.6-6.8-5.9c-2.6-3.6,2.2,20.2,5.1,22.5C180.4,252,182.6,253.7,186.3,255.1z"/>
			<path class="st3" d="M180,267.7c3.6,2.2,5.4,3.1,8.4,3.8c4.4,1.1,4.7,2.3,6.3,4.1c0,0-0.5-10.6-2.6-13.7c-3-4.5-9-5.7-11.3-6.3
				c-2.2-0.6-3.7-2.3-5-3.7C173.7,249.6,174.2,264.2,180,267.7z"/>
			<path class="st3" d="M158.9,152.3c0.5,2.2,4.5,18.8,5.4,24c0.9,5.1,3.6,23.7,8.2,27.2c4.6,3.5,6.7,5.2,10.4,6.7
				c5.5,2.2,5.8,4,7.7,6.9c0,0-0.1-15.4-2.6-20.1c-3.6-6.9-11-9-13.8-10.2c-2.8-1.1-5.4-3.3-7.3-13c-7.1-36.8-19.2-63.8-22.1-64.5
				c0,0-2.4-1.9,0.6,4.2C148.4,119.6,157.6,146.7,158.9,152.3z"/>
			<path class="st3" d="M161.1,137.2c0.9,5.1,7.2,41.2,11.8,44.7c4.6,3.5,5,3.8,8,5.2c5.3,2.6,5.8,4,7.7,6.9c0,0-0.6-14.3-3.1-19
				c-3.6-6.9-10.5-10.1-13.4-11.3c-2.8-1.1-5-10.3-6.8-19.9c-7.1-36.8-15.5-57.8-26.9-70.5c0,0-4.4-4.8-1.4,1.3
				c1.7,3.4,14.3,25,17,36.3C154.4,113.1,160.2,132.1,161.1,137.2z"/>
			<path class="st3" d="M206.3,222.4c-2.5,1.6-9.5,5.2-11.7,12.6c-1.5,5.1,1.2,20.2,1.2,20.2c1.3-3.2,1.3-5,6.3-8.2
				c3.4-2.2,5.1-4.3,9-8.6c3.9-4.3,5.7-20.3,5.6-25.4c-0.1-5.2,2-22.8,1.7-25.1c-0.4-2.3,0.5-16.4,2.3-23c1.8-6.6-0.8-4.2-0.8-4.2
				c-2.7,1.2-5.6,43.7-5.7,50C214.1,217,208.9,220.7,206.3,222.4z"/>
			<path class="st3" d="M212.9,239.4c-1.2,2.2-2.5,4.9-4.8,6c-2.2,1.1-8.1,3.7-10.9,10.5c-1.9,4.6-1.8,19.7-1.8,19.7
				c1.5-2.8,1.7-4.6,6-6.7c2.9-1.4,4.7-3,8.2-6.6C215.2,256.6,214.9,235.8,212.9,239.4z"/>
			<path class="st3" d="M204.6,199.1c-2.5,1.7-9.4,5.3-11.6,12.7c-1.5,5.1,1.4,20.2,1.4,20.2c1.3-3.2,1.3-5,6.2-8.2
				c3.4-2.2,5.1-4.3,8.9-8.6c3.8-4.3,2.8-23.1,2.7-28.3c-0.1-5.2,0.5-22.3,0.6-24.5c0.2-5.7,3.8-34.1,5.6-40.6
				c1.7-6.6-0.3-4.2-0.3-4.2c-2.7,1.2-9.3,30.1-8.9,67.6C209.2,194.8,207.1,197.4,204.6,199.1z"/>
			<path class="st3" d="M202.7,173.9c-2.8,4.7-8.7,8.3-11.1,15.7c-1.6,5.1,0.7,19.6,0.7,19.6c1.4-3.2,2.5-4.3,7.3-7.7
				c2.7-2,4-3.5,6.3-8.8c3.9-9.4,1.9-27.3,0-44.1c-0.6-5.2-3.8-30.9-5.5-44.8c-1.4-11.5-2-32.5-1-36.1c1.9-6.5-1.5-0.9-1.5-0.9
				c-6.8,15.3,3.2,51.6,5,89C203.3,165.8,204.2,171.3,202.7,173.9z"/>
			<path class="st3" d="M193.9,151.8c-4.7,5.4-6.9,12.5-6.9,18.6c0,5.3,3.2,19,3.2,19c0.9-3.4,0.9-4.8,5.1-9c2.4-2.3,5.1-6,5.9-7.5
				c2.6-5.1-3.5-40.8-4.3-45.9c-0.8-5.1-3.8-25.7-4.1-27.9c-1.1-11.5-6.9-54.2-7.2-60c-0.3-6.8-1.8-0.8-1.8-0.8
				c-3.2,13,4.5,58.7,9.6,95.8C194.9,143.8,195.9,149.5,193.9,151.8z"/>
			<path class="st3" d="M142.1,60.3c2.6,4.9,6.2,14.1,6.8,15.1c0.6,1,6.9,17.9,7.7,19.6c0.7,1.8,5.3,19.9,5.9,22
				c1.3,4.9,4.5,21.9,5,24.9c0.4,3,2.6,14.4,5.4,18.6c2.8,4.2,10,6.9,10,6.9s5.3-9.9,6-11.7c-1.9-3.6-5.1-6-11.2-10.7
				c-1.2-0.9-6.6-4.6-7.5-8.2c-0.9-3.6-3.1-13.7-4.4-19c-1.3-5.3-5.2-22.7-8.1-30c-2.8-7.1-5.6-13.1-8-18.9
				c-2.3-5.8-8.3-15.3-9.5-17.5c-1.2-2.2-6.1-8.5-7.7-10.4c-1.6-2-2.2,0-1.3,1C132,42.8,139.3,55.2,142.1,60.3z"/>
			<path class="st3" d="M153.7,29.3c1.1,2.4,8.9,26.5,9.8,28.8c0.9,2.2,8.5,31.2,8.7,32.4c0.3,1.2,5.8,28.4,6.2,31
				c0.4,2.6-0.1,7.1-1.3,10.8c-1.2,3.7-1.5,9.2-1.5,9.2c2.9,0.3,14,11.6,14,11.6s2-3.1,2.8-4.6c0.8-1.5,0.5-8.6-0.3-12.4
				c-0.8-3.8-4.7-8-5.5-9c-0.8-1-3.8-5-4-7.4c-0.2-2.4-9.7-39.5-10.2-42.7c-0.5-3.2-8-25.4-10.2-32.6c-2.2-7.1-12.9-31.9-13.4-33.2
				c-0.6-1.3-2.5-0.3-1.5,1.2C148.3,14,152.6,27,153.7,29.3z"/>
			<path class="st3" d="M295.5,173.1c2.5-4.5,13.2-18.8,14-20.9c0.8-2.1,8.7-13.9,13.5-18.7c4.8-4.8,1.4-4,1.4-4
				c-2.9-0.3-26.7,35-29.9,40.4c-3.2,5.4-9.6,6-12.7,6.1c-3,0.1-10.8-0.3-16.4,5c-3.9,3.7-9,18.1-9,18.1c2.7-2.1,3.7-3.7,9.5-3.9
				c4-0.2,6.6-1.1,12-2.9C283.5,190.5,293,177.6,295.5,173.1z"/>
			<path class="st3" d="M280.6,193.3c-2.2,1.6-5.3,3.1-8.3,3.3c-3,0.1-10.8-0.3-16.4,5c-3.9,3.7-9,18.1-9,18.1
				c2.7-2.1,3.7-3.7,9.5-3.9c4-0.2,6.6-1,12-2.9C271.9,211.6,284.2,190.7,280.6,193.3z"/>
			<path class="st3" d="M266.3,216c-1.7,0.9-3.6,2.1-5.9,1.9s-8.4-1-12.7,2.3c-3,2.2-7,12.1-7,12.1c2.1-1.2,2.8-2.3,7.3-1.8
				c3,0.3,5,0,9.2-0.9C263.7,228.2,269.1,214.6,266.3,216z"/>
			<path class="st3" d="M346.4,92.2c-2.9-0.3-23.3,21.2-42.1,53.6c-4.9,8.5-8.1,9.7-11.1,9.9c-3,0.1-10.8-0.3-16.4,5
				c-3.9,3.7-9,18.1-9,18.1c2.7-2.1,3.7-3.7,9.5-3.9c4-0.2,6.6-1.1,12-2.9c5.5-1.8,14.2-18.5,16.7-23c2.5-4.5,11.7-18.9,13-20.8
				c3.1-4.9,20.6-27.4,25.5-32.2C349.3,91.1,346.4,92.2,346.4,92.2z"/>
			<path class="st3" d="M364.3,61.3c-14.9,8.2-29.8,25.3-48.6,57.7c-4.9,8.5-10,16.4-13,16.6c-3,0.1-10.7,1-16.3,6.3
				c-3.9,3.7-9.1,16.9-9.1,16.9c2.7-2.1,3.7-3.2,9.5-3.9c3.3-0.4,3.8-0.5,9.2-2.3c5.5-1.8,23.3-33.8,25.9-38.3
				c2.5-4.5,14.2-20.6,15.4-22.5c6.2-9.8,25.3-26,28-28.7C370.1,58.2,364.3,61.3,364.3,61.3z"/>
			<path class="st3" d="M244.5,201.9c3.6,4.6,3.1,6.3,3.3,9.8c0,0,7.6-13.4,7.8-18.7c0.3-7.7-5-13.3-6.9-15.7
				c-1.9-2.4-5.6-7.6-3.6-13.6c2-6,13.2-47,11.1-49.1c0,0-1.6-3.1-2.1,3.7c-0.5,6.8-4.3,20.5-5.4,22.5c-1.1,2-4.9,19.3-6.7,24.2
				c-1.8,4.9-5.3,20.6-3.1,25.9C241,196.2,242,198.8,244.5,201.9z"/>
			<path class="st3" d="M236.9,221.6c3.4,3.4,3,5.1,3.5,8.3c0,0,5.1-14.2,4.8-19.2c-0.4-7.2-5.1-11.7-6.8-13.5
				c-1.7-1.8-2.1-4.8-2.5-7.2c-0.7-4-7.8,15.5-4.5,22.7C233.5,217.3,234.7,219.3,236.9,221.6z"/>
			<path class="st3" d="M248.7,170.7c2,5.4,2.9,8,5.3,11.2c3.5,4.7,2.8,6.4,2.9,9.9c0,0,8.1-13.1,8.5-18.4c0.6-7.7-4.6-13.5-6.3-16
				c-1.8-2.5-2.8-5.7,0.7-14.8c13.6-34.9,17.6-64.2,15.5-66.4c0,0-1-2.9-1.7,3.8c-0.7,6.8-7.3,34.5-9.2,40
				c-0.7,2.2-6.2,18.3-8.2,23.2C254.2,148,246.6,165.3,248.7,170.7z"/>
			<path class="st3" d="M263.9,161.6c3.2,4.9,4,6.3,4.1,9.8c0,0,7.3-12.8,7.6-18.1c0.4-7.7-3.9-13.2-4.8-18.6c-0.5-3,2.3-7.8,6.2-17
				c14.9-34.4,37-64.8,36.1-81.5c0,0-1.2-6.5-1.7,0.3c-0.3,3.8-8.3,23.2-13.7,33.4c-6.6,12.4-18.6,35.3-21,39.9
				c-7.7,15-16,31.1-15.6,41.2C261.3,157,262.1,158.9,263.9,161.6z"/>
			<path class="st3" d="M293.8,92.1c-2.7,4.5-21.8,35.2-21.4,40.9c0.1,1.7,1.3,6.1,2.6,9.2c2.3,5.4,1.8,6.8,1.3,10.2
				c0,0,8.2-11.4,10.1-16.3c2.3-5.7,2.9-13,0.6-19.8c-1-2.9,2.2-7.7,7.1-16.2c18.8-32.4,43.3-71.8,45.2-85c0,0,0.9-6.1-1.9,0
				c-2.4,5.3-23.9,42.5-29.3,52.8C307.1,69.7,296.5,87.6,293.8,92.1z"/>
			<path class="st3" d="M380.6,33.5c-2.1,1.4-8.8,5.6-10.7,7.3c-1.9,1.7-10.6,8.7-14.8,13.4c-4.1,4.7-8.8,9.4-13.8,15.3
				c-5.1,5.9-14.5,21.1-17.5,25.7c-2.9,4.6-8.4,13.4-10.4,16.5c-2.1,3.1-8.3,5.2-9.8,5.3c-4.8,0.4-12.4,3.1-12.3,7.2
				c0,1.9-2.8,12.5-2.8,12.5s10.5-0.4,14.5-3.4c4-3.1,9.8-13.1,11.2-15.8c1.4-2.7,10.1-17.6,12.9-21.8c1.2-1.8,11.5-17.4,12.8-18.8
				c1.3-1.4,12.8-15.2,13.7-16c0.9-0.8,7.4-8.3,11.4-12c4.3-3.9,15.3-13.2,16.4-13.8C382.7,34.2,382.7,32.2,380.6,33.5z"/>
			<path class="st3" d="M307,91.6c-1,2.2-5.2,5-6.2,5.7c-1.1,0.7-5.7,3.8-7.7,7.2c-2,3.4-3.9,8.6-3.5,10.3c0.3,1.7,0.2,5.1,0.2,5.1
				s10.1-4.4,13-3.7c0,0,5.2-6.8,5.3-10.7c0-3.9,1.1-8.2,2.3-10.6c1.2-2.4,15.4-26.2,16.1-27.3c0.6-1.1,17.3-25.9,18.9-27.8
				c1.6-1.8,17-22.1,18.7-23.9c1.8-1.9,10.1-12.8,11.6-13.8c1.5-1.1-0.1-2.6-1-1.6c-1,1.1-19.2,20.9-23.6,26.9
				c-4.4,6-18.8,24.6-20.3,27.4C329.1,57.5,308,89.4,307,91.6z"/>
			<path class="st3" d="M60.9,207c4.9,4.7,13,16.4,13.8,18.5c0.8,2.1,11.7,16.2,14.3,20.7c2.6,4.5,12.4,17.3,17.9,19
				c5.5,1.7,8.1,2.6,12.1,2.7c5.9,0.2,6.8,1.7,9.6,3.8c0,0-5.4-14.4-9.3-18c-5.7-5.2-13.5-4.7-16.5-4.8c-3-0.1-9.4-0.6-12.8-5.9
				c-3.3-5.4-27.6-40.3-30.6-40C59.4,203,56,202.3,60.9,207z"/>
			<path class="st3" d="M116.8,285.5c5.5,1.8,8.1,2.6,12.1,2.7c5.9,0.2,6.8,1.7,9.6,3.8c0,0-5.4-14.4-9.3-18
				c-5.7-5.2-13.5-4.7-16.5-4.8c-3-0.1-6.2-1.6-8.4-3.2C100.6,263.6,113.3,284.4,116.8,285.5z"/>
			<path class="st3" d="M128.3,302.1c4.2,0.8,6.1,1,9.2,0.7c4.5-0.5,5.2,0.5,7.3,1.7c0,0-4.2-9.8-7.1-11.9c-4.3-3.2-10.4-2.3-12.7-2
				c-2.3,0.2-4.3-0.9-6-1.8C116.2,287.3,121.7,300.8,128.3,302.1z"/>
			<path class="st3" d="M78.1,222.3c2.6,4.5,11.6,21,17.1,22.7c5.5,1.7,8.1,2.6,12.1,2.7c5.9,0.2,6.8,1.7,9.6,3.8
				c0,0-5.4-14.4-9.3-18c-5.7-5.2-13.5-4.7-16.5-4.8c-3-0.1-6.2-1.3-11.3-9.7c-19.3-32.1-40-53.3-42.9-52.9c0,0-2.9-1,2,3.7
				c4.9,4.7,22.8,26.9,26,31.8C66.1,203.5,75.5,217.8,78.1,222.3z"/>
			<path class="st3" d="M45.9,165.5c1.3,1.9,13.2,17.8,15.8,22.2c2.6,4.5,21,36.2,26.5,37.9c5.5,1.7,6,1.8,9.3,2.2
				c5.8,0.6,6.8,1.7,9.6,3.8c0,0-5.5-13.2-9.4-16.8c-5.7-5.2-13.4-5.9-16.4-6c-3-0.1-8.2-7.9-13.3-16.4
				c-19.3-32.1-34.5-48.9-49.5-56.9c0,0-5.8-3-0.9,1.7C20.3,139.9,39.6,155.8,45.9,165.5z"/>
			<path class="st3" d="M136,249.7c-1.8,2.4-7.1,8.1-6.7,15.8c0.3,5.3,8.1,18.6,8.1,18.6c0.1-3.5-0.5-5.2,3.1-9.8
				c2.4-3.2,3.3-5.8,5.5-11.1c2.1-5.4-1.7-21-3.5-25.8c-1.8-4.9-5.9-22.1-7.1-24.1c-1.1-2-5.1-15.6-5.7-22.4
				c-0.6-6.8-2.2-3.7-2.2-3.7c-2.1,2.1,9.8,42.9,11.9,48.9C141.5,242,137.8,247.3,136,249.7z"/>
			<path class="st3" d="M148.4,293.8c2.3-2.4,3.3-4.4,5.4-9c3.2-7.2-4.2-26.6-4.9-22.6c-0.4,2.4-0.7,5.5-2.4,7.3
				c-1.7,1.8-6.4,6.3-6.6,13.6c-0.2,5,5.1,19.1,5.1,19.1C145.4,299,145.1,297.3,148.4,293.8z"/>
			<path class="st3" d="M125.3,230c-1.7,2.5-6.8,8.4-6.1,16.1c0.5,5.3,8.8,18.3,8.8,18.3c0-3.5-0.7-5.2,2.7-10
				c2.3-3.3,3.1-5.9,5.1-11.3c1.9-5.4-5.9-22.5-8-27.3c-2-4.8-7.8-20.9-8.5-23c-2-5.4-9-33.1-9.8-39.8c-0.8-6.8-1.8-3.8-1.8-3.8
				c-2,2.1,2.5,31.4,16.6,66.1C128.1,224.2,127.1,227.5,125.3,230z"/>
			<path class="st3" d="M113.2,207.5c-0.9,5.4-5,10.9-4.5,18.6c0.4,5.3,7.9,18,7.9,18c0.1-3.5,0.8-4.9,3.9-9.9
				c1.8-2.8,2.5-4.7,2.6-10.5c0.2-10.2-8.3-26.1-16.2-41c-2.4-4.6-14.9-27.3-21.7-39.6C79.6,133,71.3,113.8,70.9,110
				c-0.7-6.8-1.7-0.3-1.7-0.3c-0.6,16.7,22,46.7,37.4,80.9C110.8,199.7,113.7,204.5,113.2,207.5z"/>
			<path class="st3" d="M89.2,173c5.1,8.4,8.3,13.2,7.4,16.1c-2.1,6.8-1.4,14.2,0.9,19.8c2.1,4.9,10.4,16.2,10.4,16.2
				c-0.5-3.4-1-4.8,1.2-10.3c1.2-3.1,2.3-7.5,2.4-9.2c0.4-5.8-19.3-36.1-22-40.5c-2.7-4.4-13.6-22.1-14.7-24.1
				C69.1,130.9,47,94,44.5,88.8c-3-6.1-1.9,0-1.9,0C44.8,102,69.8,141,89.2,173z"/>
			<path class="st3" d="M338.7,164.4c-10.1,4.3-25.3,16.2-25.3,16.2c-18.3,12.3-58.7,65-58.7,65c-8.2,9.1-23.4,38.4-33,57.9l1.8-7.7
				c0,0,6.1-20.3,8.9-30.9c1.9-7.3,6.3-14.2,8.8-17.8c1-1.2,6.9-5.7,10.4-6.4c6.5-1.4,14.8-13.8,12.1-12.4
				c-1.7,0.9-6.5,3.9-11.1,3.1c-4.3-0.7-8.4,1.2-12.7,4.4c-0.9,0.7-1.8,2-2.6,3.5c0.9-3.4,1.7-6.8,1.6-8.8
				c-0.4-7.2-6.2-11.1-7.9-12.9c-1.7-1.8-2.1-6.7-2.6-9.2c-0.7-4-5.2,12.1-2,19.3c3.9,8.5,5,14.4,4.4,17.8
				c-1.6,11.2-14,49.9-14,49.9L204.6,342c-5.6,16.4-9.1,33.4-11.2,49.3l3.8-46.9c0,0,1-40.7,3.2-51.7c0.6-3.4,3.6-8.6,10.1-15.4
				c5.4-5.7,6.5-22.4,4.5-18.9c-1.2,2.2-3.2,6.7-5.5,7.8c-2.2,1.1-9,2.9-11.7,9.6c-0.7,1.8-1.2,5.3-1.4,8.8
				c-0.3-1.6-0.7-3.2-1.3-4.1c-3-4.5-6.3-7.6-10.6-8.3c-4.6-0.8-8.2-5.2-9.5-6.6c-2.1-2.3,1.6,12.2,7.3,15.6c3.1,1.9,7.1,8,7.7,9.5
				c1.2,4.2,3,12.3,2.4,19.8c-0.8,10.9-1.8,32.1-1.8,32.1l-5.2,50.7l-1.5,24.1c-0.4-1.2-0.8-2.4-1.2-3.6l-12.9-46.4
				c0,0-13-38.5-14.8-49.7c-0.6-3.4,0.4-9.3,4.2-17.9c3.1-7.2-1.6-23.3-2.3-19.3c-0.4,2.4-0.7,7.4-2.4,9.2c-1.7,1.8-7.4,5.8-7.7,13
				c-0.1,2,0.7,5.4,1.7,8.8c-0.8-1.5-1.7-2.7-2.6-3.4c-4.3-3.2-8.5-5-12.8-4.2c-4.6,0.9-9.5-2.1-11.2-2.9
				c-2.8-1.4,5.7,10.9,12.3,12.2c3.6,0.7,9.5,5.1,10.5,6.3c2.6,3.6,7,10.5,9.1,17.7c3,10.5,9.4,30.7,9.4,30.7l2,7.7
				C155,356,139.4,326.9,131,318c0,0-41.2-52-59.7-64c0,0-15.3-11.6-25.5-15.8c-10.2-4.1-20.4-5.6-26-5.1c0,0,28.1,11.6,36.5,19.5
				c8.4,7.9,20.7,18,27.9,24.8c8.6,8.2,23.7,27.7,29,34.7c5.7,7.6,22.4,34.7,28.6,43.6c6,8.7,18.4,32.6,21.9,43.3
				c3.6,10.8,12.1,31.6,15.5,40.8c0.2,0.7,0.5,1.4,0.8,2.2c-4.2-6.9-15.1-24.9-17.3-28.7c-2.6-4.3-9.2-11-18.5-17.6
				c-5.3-3.8-23-9.4-23-9.4s24.6,14.9,37.1,36.9c8.5,15,22.8,35.6,31.3,47.5c0.9,3.2,1.5,6,1.6,7.7c0.4,4.6,2.7,19,0.4,32.1
				c-0.9,4.9,1.4,13.2,3.9,13.7c2.5,0.5,4.4-0.3,4.6-2.1c0,0-3.1-8.1-1.3-18.2c3.8-21,14.9-61.3,18.9-89.6
				c5.1-36.7,30.7-70.2,30.7-70.2s-21,17.2-26.2,25.2c-9.1,14-14.5,26.7-15.7,33.9c-0.7,4.6-3.7,21.9-6,35.5
				c-1.3-8.7-1.7-15.7-1.1-19c2.1-11.7,2.6-18.8,3.4-22c8.3-12,18.2-31.4,26.4-46.6c12.1-22.3,36.5-37.5,36.5-37.5
				s-17.6,5.9-22.8,9.8c-9.2,6.8-15.7,13.6-18.2,17.9c-2.2,3.8-12.8,22-16.9,28.9c0.3-0.8,0.5-1.5,0.8-2.2
				c3.2-9.2,11.4-30.1,14.8-41c3.4-10.7,15.4-34.9,21.2-43.6c6.1-9.1,22.3-36.4,27.9-44.1c5.1-7.1,19.9-26.8,28.4-35.1
				c7-6.9,19.2-17.2,27.5-25.2c8.3-8,36.2-20.1,36.2-20.1C359,158.5,348.8,160.1,338.7,164.4z"/>
			<path class="st3" d="M29.1,134.8c0.9,0.8,12.7,14.4,14,15.8c1.3,1.4,11.9,16.9,13.1,18.6c2.9,4.2,11.8,19,13.2,21.6
				c1.4,2.6,7.4,12.6,11.4,15.6c4.1,3,14.6,3.2,14.6,3.2s-3-10.6-3-12.4c0-4.1-7.6-6.7-12.4-7c-1.5-0.1-7.7-2.1-9.9-5.1
				c-2.1-3.1-7.7-11.8-10.7-16.3c-3-4.5-12.7-19.5-17.9-25.4c-5.1-5.7-9.8-10.4-14-15c-4.2-4.7-13.1-11.5-15-13.2
				c-1.9-1.7-8.7-5.8-10.8-7.2c-2.1-1.3-2,0.8-0.9,1.4c1.2,0.7,12.3,9.7,16.7,13.6C21.6,126.7,28.2,134.1,29.1,134.8z"/>
			<path class="st3" d="M6.2,76.4C7.7,77.4,16.2,88.2,18,90c1.8,1.8,17.5,21.8,19.1,23.6c1.6,1.8,18.7,26.4,19.3,27.4
				c0.7,1.1,15.2,24.7,16.5,27c1.3,2.3,2.4,6.7,2.5,10.6c0.1,3.9,5.5,10.6,5.5,10.6c2.8-0.8,13,3.5,13,3.5s-0.1-3.4,0.2-5.1
				c0.3-1.7-1.6-6.9-3.7-10.2c-2.1-3.3-6.8-6.4-7.8-7c-1.1-0.7-5.3-3.4-6.3-5.6c-1-2.2-22.7-33.7-24.3-36.5
				c-1.6-2.8-16.2-21.1-20.8-27.1c-4.5-5.9-23.1-25.5-24-26.5C6.2,73.7,4.7,75.3,6.2,76.4z"/>
		</g>
	</g>
	<g class="st0">
		<path class="st4" d="M540.7,202.1c0.9,5.1,5.7,20.5,10.2,24c4.6,3.5,6.7,5.2,10.4,6.7c5.5,2.2,5.8,4,7.7,6.9
			c0,0-0.1-15.4-2.6-20.1c-3.6-6.9-11-9-13.8-10.2c-2.8-1.1-8.7-3.8-9.9-10c-1.3-6.2-12.1-47.3-14.9-48c0,0-3-1.8,0,4.3
			c3,6.1,6.5,19.8,6.6,22.1C534.4,180,539.8,197,540.7,202.1z"/>
		<path class="st4" d="M562.7,255.1c5.5,2.2,5.8,4,7.7,6.9c0,0-0.1-15.4-2.6-20.1c-3.6-6.9-11-9-13.8-10.2c-2.8-1.1-5.2-3.6-6.8-5.9
			c-2.6-3.6,2.2,20.2,5.1,22.5C556.8,252,558.9,253.7,562.7,255.1z"/>
		<path class="st4" d="M556.3,267.7c3.6,2.2,5.4,3.1,8.4,3.8c4.4,1.1,4.7,2.3,6.3,4.1c0,0-0.5-10.6-2.6-13.7c-3-4.5-9-5.7-11.3-6.3
			c-2.2-0.6-3.7-2.3-5-3.7C550,249.6,550.6,264.2,556.3,267.7z"/>
		<path class="st4" d="M535.3,152.3c0.5,2.2,4.5,18.8,5.4,24c0.9,5.1,3.6,23.7,8.2,27.2c4.6,3.5,6.7,5.2,10.4,6.7
			c5.5,2.2,5.8,4,7.7,6.9c0,0-0.1-15.4-2.6-20.1c-3.6-6.9-11-9-13.8-10.2c-2.8-1.1-5.4-3.3-7.3-13c-7.1-36.8-19.2-63.8-22.1-64.5
			c0,0-2.4-1.9,0.6,4.2C524.8,119.6,533.9,146.7,535.3,152.3z"/>
		<path class="st4" d="M537.4,137.2c0.9,5.1,7.2,41.2,11.8,44.7c4.6,3.5,5,3.8,8,5.2c5.3,2.6,5.8,4,7.7,6.9c0,0-0.6-14.3-3.1-19
			c-3.6-6.9-10.5-10.1-13.4-11.3c-2.8-1.1-5-10.3-6.8-19.9c-7.1-36.8-15.5-57.8-26.9-70.5c0,0-4.4-4.8-1.4,1.3
			c1.7,3.4,14.3,25,17,36.3C530.8,113.1,536.5,132.1,537.4,137.2z"/>
		<path class="st4" d="M582.7,222.4c-2.5,1.6-9.5,5.2-11.7,12.6c-1.5,5.1,1.2,20.2,1.2,20.2c1.3-3.2,1.3-5,6.3-8.2
			c3.4-2.2,5.1-4.3,9-8.6c3.9-4.3,5.7-20.3,5.6-25.4c-0.1-5.2,2-22.8,1.7-25.1c-0.4-2.3,0.5-16.4,2.3-23c1.8-6.6-0.8-4.2-0.8-4.2
			c-2.7,1.2-5.6,43.7-5.7,50C590.5,217,585.2,220.7,582.7,222.4z"/>
		<path class="st4" d="M589.2,239.4c-1.2,2.2-2.5,4.9-4.8,6c-2.2,1.1-8.1,3.7-10.9,10.5c-1.9,4.6-1.8,19.7-1.8,19.7
			c1.5-2.8,1.7-4.6,6-6.7c2.9-1.4,4.7-3,8.2-6.6C591.5,256.6,591.2,235.8,589.2,239.4z"/>
		<path class="st4" d="M580.9,199.1c-2.5,1.7-9.4,5.3-11.6,12.7c-1.5,5.1,1.4,20.2,1.4,20.2c1.3-3.2,1.3-5,6.2-8.2
			c3.4-2.2,5.1-4.3,8.9-8.6c3.8-4.3,2.8-23.1,2.7-28.3c-0.1-5.2,0.5-22.3,0.6-24.5c0.2-5.7,3.8-34.1,5.6-40.6
			c1.7-6.6-0.3-4.2-0.3-4.2c-2.7,1.2-9.3,30.1-8.9,67.6C585.5,194.8,583.4,197.4,580.9,199.1z"/>
		<path class="st4" d="M579,173.9c-2.8,4.7-8.7,8.3-11.1,15.7c-1.6,5.1,0.7,19.6,0.7,19.6c1.4-3.2,2.5-4.3,7.3-7.7
			c2.7-2,4-3.5,6.3-8.8c3.9-9.4,1.9-27.3,0-44.1c-0.6-5.2-3.8-30.9-5.5-44.8c-1.4-11.5-2-32.5-1-36.1c1.9-6.5-1.5-0.9-1.5-0.9
			c-6.8,15.3,3.2,51.6,5,89C579.7,165.8,580.6,171.3,579,173.9z"/>
		<path class="st4" d="M570.3,151.8c-4.7,5.4-6.9,12.5-6.9,18.6c0,5.3,3.2,19,3.2,19c0.9-3.4,0.9-4.8,5.1-9c2.4-2.3,5.1-6,5.9-7.5
			c2.6-5.1-3.5-40.8-4.3-45.9c-0.8-5.1-3.8-25.7-4.1-27.9c-1.1-11.5-6.9-54.2-7.2-60c-0.3-6.8-1.8-0.8-1.8-0.8
			c-3.2,13,4.5,58.7,9.6,95.8C571.2,143.8,572.3,149.5,570.3,151.8z"/>
		<path class="st4" d="M518.4,60.3c2.6,4.9,6.2,14.1,6.8,15.1c0.6,1,6.9,17.9,7.7,19.6c0.7,1.8,5.3,19.9,5.9,22
			c1.3,4.9,4.5,21.9,5,24.9c0.4,3,2.6,14.4,5.4,18.6c2.8,4.2,10,6.9,10,6.9s5.3-9.9,6-11.7c-1.9-3.6-5.1-6-11.2-10.7
			c-1.2-0.9-6.6-4.6-7.5-8.2c-0.9-3.6-3.1-13.7-4.4-19c-1.3-5.3-5.2-22.7-8.1-30c-2.8-7.1-5.6-13.1-8-18.9
			c-2.3-5.8-8.3-15.3-9.5-17.5c-1.2-2.2-6.1-8.5-7.7-10.4c-1.6-2-2.2,0-1.3,1C508.3,42.8,515.7,55.2,518.4,60.3z"/>
		<path class="st4" d="M530,29.3c1.1,2.4,8.9,26.5,9.8,28.8c0.9,2.2,8.5,31.2,8.7,32.4c0.3,1.2,5.8,28.4,6.2,31
			c0.4,2.6-0.1,7.1-1.3,10.8c-1.2,3.7-1.5,9.2-1.5,9.2c2.9,0.3,14,11.6,14,11.6s2-3.1,2.8-4.6c0.8-1.5,0.5-8.6-0.3-12.4
			c-0.8-3.8-4.7-8-5.5-9c-0.8-1-3.8-5-4-7.4c-0.2-2.4-9.7-39.5-10.2-42.7c-0.5-3.2-8-25.4-10.2-32.6c-2.2-7.1-12.9-31.9-13.4-33.2
			c-0.6-1.3-2.5-0.3-1.5,1.2C524.7,14,528.9,27,530,29.3z"/>
		<path class="st4" d="M671.9,173.1c2.5-4.5,13.2-18.8,14-20.9c0.8-2.1,8.7-13.9,13.5-18.7c4.8-4.8,1.4-4,1.4-4
			c-2.9-0.3-26.7,35-29.9,40.4c-3.2,5.4-9.6,6-12.7,6.1c-3,0.1-10.8-0.3-16.4,5c-3.9,3.7-9,18.1-9,18.1c2.7-2.1,3.7-3.7,9.5-3.9
			c4-0.2,6.6-1.1,12-2.9C659.8,190.5,669.3,177.6,671.9,173.1z"/>
		<path class="st4" d="M657,193.3c-2.2,1.6-5.3,3.1-8.3,3.3c-3,0.1-10.8-0.3-16.4,5c-3.9,3.7-9,18.1-9,18.1c2.7-2.1,3.7-3.7,9.5-3.9
			c4-0.2,6.6-1,12-2.9C648.2,211.6,660.6,190.7,657,193.3z"/>
		<path class="st4" d="M642.6,216c-1.7,0.9-3.6,2.1-5.9,1.9c-2.3-0.2-8.4-1-12.7,2.2c-3,2.2-7,12.1-7,12.1c2.1-1.2,2.8-2.3,7.3-1.8
			c3,0.3,5,0,9.2-0.9C640.1,228.2,645.4,214.6,642.6,216z"/>
		<path class="st4" d="M722.7,92.2c-2.9-0.3-23.3,21.2-42.1,53.6c-4.9,8.5-8.1,9.7-11.1,9.9c-3,0.1-10.8-0.3-16.4,5
			c-3.9,3.7-9,18.1-9,18.1c2.7-2.1,3.7-3.7,9.5-3.9c4-0.2,6.6-1.1,12-2.9c5.5-1.8,14.2-18.5,16.7-23c2.5-4.5,11.7-18.9,13-20.8
			c3.1-4.9,20.6-27.4,25.5-32.2C725.6,91.1,722.7,92.2,722.7,92.2z"/>
		<path class="st4" d="M740.7,61.3c-14.9,8.2-29.8,25.3-48.6,57.7c-4.9,8.5-10,16.4-13,16.6c-3,0.1-10.7,1-16.3,6.3
			c-3.9,3.7-9.1,16.9-9.1,16.9c2.7-2.1,3.7-3.2,9.5-3.9c3.3-0.4,3.8-0.5,9.2-2.3c5.5-1.8,23.3-33.8,25.9-38.3
			c2.5-4.5,14.2-20.6,15.4-22.5c6.2-9.8,25.3-26,28-28.7C746.4,58.2,740.7,61.3,740.7,61.3z"/>
		<path class="st4" d="M620.8,201.9c3.6,4.6,3.1,6.3,3.3,9.8c0,0,7.6-13.4,7.8-18.7c0.3-7.7-5-13.3-6.9-15.7
			c-1.9-2.4-5.6-7.6-3.6-13.6c2-6,13.2-47,11.1-49.1c0,0-1.6-3.1-2.1,3.7c-0.5,6.8-4.3,20.5-5.4,22.5c-1.1,2-4.9,19.3-6.7,24.2
			c-1.8,4.9-5.3,20.6-3.1,25.9C617.4,196.2,618.3,198.8,620.8,201.9z"/>
		<path class="st4" d="M613.3,221.6c3.4,3.4,3,5.1,3.5,8.3c0,0,5.1-14.2,4.8-19.2c-0.4-7.2-5.1-11.7-6.8-13.5
			c-1.7-1.8-2.1-4.8-2.5-7.2c-0.7-4-7.8,15.5-4.5,22.7C609.9,217.3,611,219.3,613.3,221.6z"/>
		<path class="st4" d="M625,170.7c2,5.4,2.9,8,5.3,11.2c3.5,4.7,2.8,6.4,2.9,9.9c0,0,8.1-13.1,8.5-18.4c0.6-7.7-4.6-13.5-6.3-16
			c-1.8-2.5-2.8-5.7,0.7-14.8c13.6-34.9,17.6-64.2,15.5-66.4c0,0-1-2.9-1.7,3.8c-0.7,6.8-7.3,34.5-9.2,40
			c-0.7,2.2-6.2,18.3-8.2,23.2C630.6,148,623,165.3,625,170.7z"/>
		<path class="st4" d="M640.2,161.6c3.2,4.9,4,6.3,4.1,9.8c0,0,7.3-12.8,7.6-18.1c0.4-7.7-3.9-13.2-4.8-18.6c-0.5-3,2.3-7.8,6.2-17
			c14.9-34.4,37-64.8,36.1-81.5c0,0-1.2-6.5-1.7,0.3c-0.3,3.8-8.3,23.2-13.7,33.4c-6.6,12.4-18.6,35.3-21,39.9
			c-7.7,15-16,31.1-15.6,41.2C637.7,157,638.4,158.9,640.2,161.6z"/>
		<path class="st4" d="M670.1,92.1c-2.7,4.5-21.8,35.2-21.4,40.9c0.1,1.7,1.3,6.1,2.6,9.2c2.3,5.4,1.8,6.8,1.3,10.2
			c0,0,8.2-11.4,10.1-16.3c2.3-5.7,2.9-13,0.6-19.8c-1-2.9,2.2-7.7,7.1-16.2c18.8-32.4,43.3-71.8,45.2-85c0,0,0.9-6.1-1.9,0
			c-2.4,5.3-23.9,42.5-29.3,52.8C683.4,69.7,672.8,87.6,670.1,92.1z"/>
		<path class="st4" d="M757,33.5c-2.1,1.4-8.8,5.6-10.7,7.3c-1.9,1.7-10.6,8.7-14.8,13.4c-4.1,4.7-8.8,9.4-13.8,15.3
			c-5.1,5.9-14.5,21.1-17.5,25.7c-2.9,4.6-8.4,13.4-10.4,16.5c-2.1,3.1-8.3,5.2-9.8,5.3c-4.8,0.4-12.4,3.1-12.3,7.2
			c0,1.9-2.8,12.5-2.8,12.5s10.5-0.4,14.5-3.4c4-3.1,9.8-13.1,11.2-15.8c1.4-2.7,10.1-17.6,12.9-21.8c1.2-1.8,11.5-17.4,12.8-18.8
			c1.3-1.4,12.8-15.2,13.7-16c0.9-0.8,7.4-8.3,11.4-12c4.3-3.9,15.3-13.2,16.4-13.8C759,34.2,759.1,32.2,757,33.5z"/>
		<path class="st4" d="M683.3,91.6c-1,2.2-5.2,5-6.2,5.7c-1.1,0.7-5.7,3.8-7.7,7.2c-2,3.4-3.9,8.6-3.5,10.3c0.3,1.7,0.2,5.1,0.2,5.1
			s10.1-4.4,13-3.7c0,0,5.2-6.8,5.3-10.7c0-3.9,1.1-8.2,2.3-10.6c1.2-2.4,15.4-26.2,16.1-27.3c0.6-1.1,17.3-25.9,18.9-27.8
			c1.6-1.8,17-22.1,18.7-23.9C742.2,13.9,750.5,3,752,1.9c1.5-1.1-0.1-2.6-1-1.6c-1,1.1-19.2,20.9-23.6,26.9
			c-4.4,6-18.8,24.6-20.3,27.4C705.5,57.5,684.3,89.4,683.3,91.6z"/>
		<path class="st4" d="M437.2,207c4.9,4.7,13,16.4,13.8,18.5c0.8,2.1,11.7,16.2,14.3,20.7c2.6,4.5,12.4,17.3,17.9,19
			c5.5,1.7,8.1,2.6,12.1,2.7c5.9,0.2,6.8,1.7,9.6,3.8c0,0-5.4-14.4-9.3-18c-5.7-5.2-13.5-4.7-16.5-4.8c-3-0.1-9.4-0.6-12.8-5.9
			c-3.3-5.4-27.6-40.3-30.6-40C435.7,203,432.3,202.3,437.2,207z"/>
		<path class="st4" d="M493.1,285.5c5.5,1.8,8.1,2.6,12.1,2.7c5.9,0.2,6.8,1.7,9.6,3.8c0,0-5.4-14.4-9.3-18
			c-5.7-5.2-13.5-4.7-16.5-4.8c-3-0.1-6.2-1.6-8.4-3.2C476.9,263.6,489.6,284.4,493.1,285.5z"/>
		<path class="st4" d="M504.6,302.1c4.2,0.8,6.1,1,9.2,0.7c4.5-0.5,5.2,0.5,7.3,1.7c0,0-4.2-9.8-7.1-11.9c-4.3-3.2-10.4-2.3-12.7-2
			c-2.3,0.2-4.3-0.9-6-1.8C492.5,287.3,498.1,300.8,504.6,302.1z"/>
		<path class="st4" d="M454.5,222.3c2.6,4.5,11.6,21,17.1,22.7c5.5,1.7,8.1,2.6,12.1,2.7c5.9,0.2,6.8,1.7,9.6,3.8
			c0,0-5.4-14.4-9.3-18c-5.7-5.2-13.5-4.7-16.5-4.8c-3-0.1-6.2-1.3-11.3-9.7c-19.3-32.1-40-53.3-42.9-52.9c0,0-2.9-1,2,3.7
			c4.9,4.7,22.8,26.9,26,31.8C442.4,203.5,451.8,217.8,454.5,222.3z"/>
		<path class="st4" d="M422.3,165.5c1.3,1.9,13.2,17.8,15.8,22.2c2.6,4.5,21,36.2,26.5,37.9c5.5,1.7,6,1.8,9.3,2.2
			c5.8,0.6,6.8,1.7,9.6,3.8c0,0-5.5-13.2-9.4-16.8c-5.7-5.2-13.4-5.9-16.4-6c-3-0.1-8.2-7.9-13.3-16.4
			c-19.3-32.1-34.5-48.9-49.5-56.9c0,0-5.8-3-0.9,1.7C396.6,139.9,415.9,155.8,422.3,165.5z"/>
		<path class="st4" d="M512.3,249.7c-1.8,2.4-7.1,8.1-6.7,15.8c0.3,5.3,8.1,18.6,8.1,18.6c0.1-3.5-0.5-5.2,3.1-9.8
			c2.4-3.2,3.3-5.8,5.5-11.1c2.1-5.4-1.7-21-3.5-25.8c-1.8-4.9-5.9-22.1-7.1-24.1c-1.1-2-5.1-15.6-5.7-22.4
			c-0.6-6.8-2.2-3.7-2.2-3.7c-2.1,2.1,9.8,42.9,11.9,48.9C517.8,242,514.2,247.3,512.3,249.7z"/>
		<path class="st4" d="M524.7,293.8c2.3-2.4,3.3-4.4,5.4-9c3.2-7.2-4.2-26.6-4.9-22.6c-0.4,2.4-0.7,5.5-2.4,7.3
			c-1.7,1.8-6.4,6.3-6.6,13.6c-0.2,5,5.1,19.1,5.1,19.1C521.8,299,521.4,297.3,524.7,293.8z"/>
		<path class="st4" d="M501.7,230c-1.7,2.5-6.8,8.4-6.1,16.1c0.5,5.3,8.8,18.3,8.8,18.3c0-3.5-0.7-5.2,2.7-10
			c2.3-3.3,3.1-5.9,5.1-11.3c1.9-5.4-5.9-22.5-8-27.3c-2-4.8-7.8-20.9-8.5-23c-2-5.4-9-33.1-9.8-39.8c-0.8-6.8-1.8-3.8-1.8-3.8
			c-2,2.1,2.5,31.4,16.6,66.1C504.4,224.2,503.4,227.5,501.7,230z"/>
		<path class="st4" d="M489.5,207.5c-0.9,5.4-5,10.9-4.5,18.6c0.4,5.3,7.9,18,7.9,18c0.1-3.5,0.8-4.9,3.9-9.9
			c1.8-2.8,2.5-4.7,2.6-10.5c0.2-10.2-8.3-26.1-16.2-41c-2.4-4.6-14.9-27.3-21.7-39.6c-5.6-10.2-13.9-29.4-14.2-33.2
			c-0.7-6.8-1.7-0.3-1.7-0.3c-0.6,16.7,22,46.7,37.4,80.9C487.1,199.7,490,204.5,489.5,207.5z"/>
		<path class="st4" d="M465.5,173c5.1,8.4,8.3,13.2,7.4,16.1c-2.1,6.8-1.4,14.2,0.9,19.8c2.1,4.9,10.4,16.2,10.4,16.2
			c-0.5-3.4-1-4.8,1.2-10.3c1.2-3.1,2.3-7.5,2.4-9.2c0.4-5.8-19.3-36.1-22-40.5c-2.7-4.4-13.6-22.1-14.7-24.1
			c-5.6-10.2-27.7-47.1-30.2-52.3c-3-6.1-1.9,0-1.9,0C421.1,102,446.2,141,465.5,173z"/>
		<path class="st4" d="M715,164.4c-10.1,4.3-25.3,16.2-25.3,16.2c-18.3,12.3-58.7,65-58.7,65c-8.2,9.1-23.4,38.4-33,57.9l1.8-7.7
			c0,0,6.1-20.3,8.9-30.9c1.9-7.3,6.3-14.2,8.8-17.8c1-1.2,6.9-5.7,10.4-6.4c6.5-1.4,14.8-13.8,12.1-12.4c-1.7,0.9-6.5,3.9-11.1,3.1
			c-4.3-0.7-8.4,1.2-12.7,4.4c-0.9,0.7-1.8,2-2.6,3.5c0.9-3.4,1.7-6.8,1.6-8.8c-0.4-7.2-6.2-11.1-7.9-12.9c-1.7-1.8-2.1-6.7-2.6-9.2
			c-0.7-4-5.2,12.1-2,19.3c3.9,8.5,5,14.4,4.4,17.8c-1.6,11.2-14,49.9-14,49.9L580.9,342c-5.6,16.4-9.1,33.4-11.2,49.3l3.8-46.9
			c0,0,1-40.7,3.2-51.7c0.6-3.4,3.6-8.6,10.1-15.4c5.4-5.7,6.5-22.4,4.5-18.9c-1.2,2.2-3.2,6.7-5.5,7.8c-2.2,1.1-9,2.9-11.7,9.6
			c-0.7,1.8-1.2,5.3-1.4,8.8c-0.3-1.6-0.7-3.2-1.3-4.1c-3-4.5-6.3-7.6-10.6-8.3c-4.6-0.8-8.2-5.2-9.5-6.6
			c-2.1-2.3,1.6,12.2,7.3,15.6c3.1,1.9,7.1,8,7.7,9.5c1.2,4.2,3,12.3,2.4,19.8c-0.8,10.9-1.8,32.1-1.8,32.1l-5.2,50.7l-1.5,24.1
			c-0.4-1.2-0.8-2.4-1.2-3.6l-12.9-46.4c0,0-13-38.5-14.8-49.7c-0.6-3.4,0.4-9.3,4.2-17.9c3.1-7.2-1.6-23.3-2.3-19.3
			c-0.4,2.4-0.7,7.4-2.4,9.2c-1.7,1.8-7.4,5.8-7.7,13c-0.1,2,0.7,5.4,1.7,8.8c-0.8-1.5-1.7-2.7-2.6-3.4c-4.3-3.2-8.5-5-12.8-4.2
			c-4.6,0.9-9.5-2.1-11.2-2.9c-2.8-1.4,5.7,10.9,12.3,12.2c3.6,0.7,9.5,5.1,10.5,6.3c2.6,3.6,7,10.5,9.1,17.7
			c3,10.5,9.4,30.7,9.4,30.7l2,7.7c-10-19.4-25.5-48.5-33.9-57.4c0,0-41.2-52-59.7-64c0,0-15.3-11.6-25.5-15.8
			c-10.2-4.1-20.4-5.6-26-5.1c0,0,28.1,11.6,36.5,19.5c8.4,7.9,20.7,18,27.9,24.8c8.6,8.2,23.7,27.7,29,34.7
			c5.7,7.6,22.4,34.7,28.6,43.6c6,8.7,18.4,32.6,21.9,43.3c3.6,10.8,12.1,31.6,15.5,40.8c0.2,0.7,0.5,1.4,0.8,2.2
			c-4.2-6.9-15.1-24.9-17.3-28.7c-2.6-4.3-9.2-11-18.5-17.6c-5.3-3.8-23-9.4-23-9.4s24.6,14.9,37.1,36.9c8.5,15,22.8,35.6,31.3,47.5
			c0.9,3.2,1.5,6,1.6,7.7c0.4,4.6,2.7,19,0.4,32.1c-0.9,4.9,1.4,13.2,3.9,13.7c2.5,0.5,4.4-0.3,4.6-2.1c0,0-0.6-8.7-1.3-18.9
			c4.7-18.5,14.9-60.6,18.9-88.9c5.1-36.7,30.7-70.2,30.7-70.2s-21,17.2-26.2,25.2c-9.1,14-14.5,26.7-15.7,33.9
			c-0.7,4.6-3.7,21.9-6,35.5c-1.3-8.7-1.7-15.7-1.1-19c2.1-11.7,2.6-18.8,3.4-22c8.3-12,18.2-31.4,26.4-46.6
			c12.1-22.3,36.5-37.5,36.5-37.5s-17.6,5.9-22.8,9.8c-9.2,6.8-15.7,13.6-18.2,17.9c-2.2,3.8-12.8,22-16.9,28.9
			c0.3-0.8,0.5-1.5,0.8-2.2c3.2-9.2,11.4-30.1,14.8-41c3.4-10.7,15.4-34.9,21.2-43.6c6.1-9.1,22.3-36.4,27.9-44.1
			c5.1-7.1,19.9-26.8,28.4-35.1c7-6.9,19.2-17.2,27.5-25.2c8.3-8,36.2-20.1,36.2-20.1C735.3,158.5,725.1,160.1,715,164.4z"/>
		<path class="st4" d="M405.4,134.8c0.9,0.8,12.7,14.4,14,15.8c1.3,1.4,11.9,16.9,13.1,18.6c2.9,4.2,11.8,19,13.2,21.6
			c1.4,2.6,7.4,12.6,11.4,15.6s14.6,3.2,14.6,3.2s-3-10.6-3-12.4c0-4.1-7.6-6.7-12.4-7c-1.5-0.1-7.7-2.1-9.9-5.1
			c-2.1-3.1-7.7-11.8-10.7-16.3c-3-4.5-12.7-19.5-17.9-25.4c-5.1-5.7-9.8-10.4-14-15c-4.2-4.7-13.1-11.5-15-13.2
			c-1.9-1.7-8.7-5.8-10.8-7.2c-2.1-1.3-2,0.8-0.9,1.4c1.2,0.7,12.3,9.7,16.7,13.6C397.9,126.7,404.5,134.1,405.4,134.8z"/>
		<path class="st4" d="M382.5,76.4c1.5,1.1,10,11.8,11.8,13.7c1.8,1.8,17.5,21.8,19.1,23.6c1.6,1.8,18.7,26.4,19.3,27.4
			c0.7,1.1,15.2,24.7,16.5,27c1.3,2.3,2.4,6.7,2.5,10.6c0.1,3.9,5.5,10.6,5.5,10.6c2.8-0.8,13,3.5,13,3.5s-0.1-3.4,0.2-5.1
			c0.3-1.7-1.6-6.9-3.7-10.2c-2.1-3.3-6.8-6.4-7.8-7c-1.1-0.7-5.3-3.4-6.3-5.6c-1-2.2-22.7-33.7-24.3-36.5
			c-1.6-2.8-16.2-21.1-20.8-27.1c-4.5-5.9-23.1-25.5-24-26.5C382.5,73.7,381,75.3,382.5,76.4z"/>
	</g>
	<g class="st0">
		<g class="st4">
			<g>
				<g>
					<g>
						<g>
							<g>
								<path d="M380.6,609.7h0.7v-0.9c0-0.9,0.1-1.6,0.3-2.1c0.2-0.5,0.6-0.9,1.1-1.1c0.5-0.2,1.3-0.4,2.2-0.4
									c1.7,0,2.5,0.4,2.5,1.2c0,0.3-0.1,0.5-0.3,0.7c-0.2,0.2-0.4,0.3-0.6,0.3c-0.1,0-0.3,0-0.6-0.1c-0.3,0-0.5-0.1-0.7-0.1
									c-0.5,0-0.8,0.2-1,0.5c-0.1,0.3-0.2,0.7-0.2,1.3v0.7h0.7c1.1,0,1.6,0.3,1.6,1c0,0.5-0.1,0.8-0.4,0.9
									c-0.3,0.1-0.7,0.2-1.2,0.2h-0.7v7.5c0,0.6-0.1,1-0.4,1.3c-0.3,0.3-0.6,0.5-1,0.5c-0.4,0-0.7-0.1-1-0.5
									c-0.3-0.3-0.4-0.7-0.4-1.3v-7.5h-0.8c-0.4,0-0.7-0.1-1-0.3c-0.2-0.2-0.3-0.4-0.3-0.7C379.1,610.1,379.6,609.7,380.6,609.7"
									/>
								<path d="M389.9,616.9v2.4c0,0.6-0.1,1-0.4,1.3c-0.3,0.3-0.6,0.4-1,0.4c-0.4,0-0.8-0.1-1-0.4c-0.3-0.3-0.4-0.7-0.4-1.3v-7.9
									c0-1.3,0.5-1.9,1.4-1.9c0.5,0,0.8,0.1,1,0.4c0.2,0.3,0.3,0.7,0.3,1.3c0.3-0.6,0.7-1,1-1.3c0.4-0.3,0.8-0.4,1.4-0.4
									c0.6,0,1.2,0.1,1.7,0.4c0.6,0.3,0.8,0.7,0.8,1.2c0,0.4-0.1,0.6-0.4,0.9c-0.2,0.2-0.5,0.3-0.8,0.3c-0.1,0-0.4-0.1-0.8-0.2
									c-0.4-0.1-0.8-0.2-1.1-0.2c-0.4,0-0.8,0.1-1,0.3c-0.3,0.2-0.5,0.5-0.6,1c-0.1,0.4-0.2,0.9-0.3,1.5
									C389.9,615.4,389.9,616.1,389.9,616.9"/>
								<path d="M402.9,616h-5.6c0,0.6,0.1,1.2,0.4,1.7c0.3,0.5,0.6,0.9,1,1.1c0.4,0.3,0.9,0.4,1.4,0.4c0.3,0,0.7,0,0.9-0.1
									c0.3-0.1,0.6-0.2,0.8-0.4c0.3-0.2,0.5-0.3,0.7-0.5c0.2-0.2,0.5-0.5,0.9-0.8c0.1-0.1,0.4-0.2,0.6-0.2c0.3,0,0.5,0.1,0.7,0.2
									c0.2,0.2,0.3,0.4,0.3,0.7c0,0.3-0.1,0.6-0.3,0.9c-0.2,0.3-0.5,0.7-0.9,1c-0.4,0.3-0.9,0.6-1.5,0.8c-0.6,0.2-1.3,0.3-2.1,0.3
									c-1.8,0-3.2-0.5-4.3-1.6c-1-1-1.5-2.5-1.5-4.2c0-0.8,0.1-1.6,0.4-2.3c0.2-0.7,0.6-1.3,1.1-1.8c0.5-0.5,1.1-0.9,1.8-1.2
									c0.7-0.3,1.5-0.4,2.3-0.4c1.1,0,2.1,0.2,2.9,0.7c0.8,0.5,1.4,1.1,1.8,1.8c0.4,0.7,0.6,1.5,0.6,2.3c0,0.7-0.2,1.2-0.6,1.4
									C404.2,615.9,403.7,616,402.9,616 M397.4,614.4h5.2c-0.1-1-0.3-1.7-0.8-2.2c-0.5-0.5-1.1-0.7-1.8-0.7
									c-0.7,0-1.3,0.2-1.7,0.7C397.7,612.7,397.5,613.4,397.4,614.4"/>
								<path d="M414.7,616h-5.6c0,0.6,0.1,1.2,0.4,1.7c0.3,0.5,0.6,0.9,1,1.1c0.4,0.3,0.9,0.4,1.4,0.4c0.3,0,0.7,0,0.9-0.1
									c0.3-0.1,0.6-0.2,0.8-0.4c0.3-0.2,0.5-0.3,0.7-0.5c0.2-0.2,0.5-0.5,0.9-0.8c0.1-0.1,0.4-0.2,0.6-0.2c0.3,0,0.5,0.1,0.7,0.2
									c0.2,0.2,0.3,0.4,0.3,0.7c0,0.3-0.1,0.6-0.3,0.9c-0.2,0.3-0.5,0.7-0.9,1c-0.4,0.3-0.9,0.6-1.5,0.8c-0.6,0.2-1.3,0.3-2.1,0.3
									c-1.8,0-3.2-0.5-4.3-1.6c-1-1-1.5-2.5-1.5-4.2c0-0.8,0.1-1.6,0.4-2.3c0.2-0.7,0.6-1.3,1.1-1.8c0.5-0.5,1.1-0.9,1.8-1.2
									c0.7-0.3,1.5-0.4,2.3-0.4c1.1,0,2.1,0.2,2.9,0.7c0.8,0.5,1.4,1.1,1.8,1.8c0.4,0.7,0.6,1.5,0.6,2.3c0,0.7-0.2,1.2-0.6,1.4
									C416.1,615.9,415.5,616,414.7,616 M409.2,614.4h5.1c-0.1-1-0.3-1.7-0.8-2.2c-0.5-0.5-1.1-0.7-1.8-0.7
									c-0.7,0-1.3,0.2-1.7,0.7C409.6,612.7,409.3,613.4,409.2,614.4"/>
								<path d="M421,611.1v0.3c0.5-0.7,1.1-1.1,1.7-1.5c0.6-0.3,1.2-0.5,2-0.5c0.9,0,1.7,0.2,2.4,0.7c0.7,0.5,1.3,1.1,1.7,2
									c0.4,0.9,0.6,1.9,0.6,3.1c0,0.9-0.1,1.7-0.4,2.4c-0.2,0.7-0.6,1.3-1,1.8c-0.4,0.5-0.9,0.9-1.5,1.1c-0.6,0.3-1.2,0.4-1.9,0.4
									c-0.8,0-1.5-0.2-2-0.5c-0.6-0.3-1.1-0.8-1.6-1.4v4.3c0,1.2-0.5,1.9-1.4,1.9c-0.5,0-0.9-0.2-1.1-0.5
									c-0.2-0.3-0.3-0.8-0.3-1.4v-12.3c0-0.5,0.1-0.9,0.4-1.2c0.2-0.3,0.6-0.4,1-0.4c0.4,0,0.7,0.1,1,0.4
									C420.8,610.2,421,610.6,421,611.1 M426.5,615.2c0-0.8-0.1-1.4-0.3-1.9c-0.2-0.5-0.5-0.9-1-1.2c-0.4-0.3-0.9-0.4-1.3-0.4
									c-0.8,0-1.4,0.3-2,0.9c-0.5,0.6-0.8,1.5-0.8,2.7c0,1.1,0.3,2,0.8,2.6c0.5,0.6,1.2,0.9,2,0.9c0.5,0,0.9-0.1,1.3-0.4
									c0.4-0.3,0.7-0.7,1-1.2C426.4,616.7,426.5,616,426.5,615.2"/>
								<path d="M432.2,608.2c-0.4,0-0.7-0.1-1-0.4c-0.3-0.3-0.4-0.6-0.4-1c0-0.4,0.1-0.7,0.4-1c0.3-0.3,0.6-0.4,1-0.4
									c0.4,0,0.7,0.1,1,0.4c0.3,0.2,0.4,0.6,0.4,1c0,0.4-0.1,0.8-0.4,1C433,608,432.6,608.2,432.2,608.2 M433.6,611.1v8.2
									c0,0.6-0.1,1-0.4,1.3c-0.3,0.3-0.6,0.4-1,0.4c-0.4,0-0.7-0.1-1-0.5c-0.3-0.3-0.4-0.7-0.4-1.3v-8.1c0-0.6,0.1-1,0.4-1.3
									c0.3-0.3,0.6-0.4,1-0.4c0.4,0,0.8,0.1,1,0.4C433.5,610.2,433.6,610.6,433.6,611.1"/>
								<path d="M442.8,619.7l-2.5-4.1l-1.5,1.5v2.3c0,0.5-0.1,1-0.4,1.3c-0.3,0.3-0.6,0.5-1,0.5c-0.4,0-0.8-0.1-1-0.4
									c-0.2-0.3-0.4-0.7-0.4-1.3v-12.1c0-0.6,0.1-1.1,0.4-1.4c0.2-0.3,0.6-0.5,1-0.5c0.4,0,0.8,0.2,1,0.5c0.3,0.3,0.4,0.7,0.4,1.3
									v6.9l3.2-3.4c0.4-0.4,0.7-0.7,0.9-0.9c0.2-0.1,0.5-0.2,0.8-0.2c0.4,0,0.7,0.1,0.9,0.3c0.2,0.2,0.3,0.5,0.3,0.9
									c0,0.4-0.4,1-1.2,1.7l-1.5,1.4l2.9,4.6c0.2,0.3,0.4,0.6,0.5,0.8c0.1,0.2,0.1,0.3,0.1,0.5c0,0.5-0.1,0.8-0.4,1.1
									c-0.2,0.3-0.6,0.4-1,0.4c-0.3,0-0.6-0.1-0.8-0.3C443.4,620.6,443.1,620.2,442.8,619.7"/>
								<path d="M449,621c-0.4,0-0.8-0.1-1.1-0.4c-0.3-0.3-0.5-0.7-0.5-1.2c0-0.4,0.2-0.8,0.5-1.1c0.3-0.3,0.7-0.5,1.1-0.5
									c0.4,0,0.8,0.1,1.1,0.4c0.3,0.3,0.5,0.7,0.5,1.1c0,0.5-0.2,0.9-0.5,1.2C449.8,620.9,449.4,621,449,621"/>
								<path d="M463.1,617.5c0,0.4-0.1,0.7-0.3,1.1c-0.2,0.4-0.5,0.8-1,1.2c-0.4,0.4-1,0.7-1.6,0.9c-0.7,0.2-1.4,0.3-2.2,0.3
									c-1.8,0-3.1-0.5-4.1-1.5c-1-1-1.5-2.4-1.5-4.1c0-1.2,0.2-2.2,0.7-3.1c0.4-0.9,1.1-1.6,2-2.1c0.9-0.5,1.9-0.7,3.1-0.7
									c0.7,0,1.4,0.1,2,0.3c0.6,0.2,1.1,0.5,1.6,0.8c0.4,0.3,0.7,0.7,1,1.1c0.2,0.4,0.3,0.7,0.3,1.1c0,0.3-0.1,0.6-0.4,0.9
									c-0.3,0.2-0.6,0.4-0.9,0.4c-0.2,0-0.4-0.1-0.6-0.2c-0.2-0.1-0.3-0.3-0.5-0.6c-0.3-0.5-0.7-0.9-1.1-1.2
									c-0.4-0.3-0.9-0.4-1.4-0.4c-0.8,0-1.5,0.3-2,1c-0.5,0.7-0.8,1.6-0.8,2.7c0,0.5,0.1,1,0.2,1.5c0.1,0.4,0.3,0.8,0.6,1.1
									c0.3,0.3,0.6,0.6,0.9,0.7c0.4,0.2,0.7,0.3,1.2,0.3c0.6,0,1.1-0.1,1.5-0.4c0.4-0.3,0.8-0.7,1.1-1.2c0.2-0.3,0.4-0.6,0.6-0.7
									c0.2-0.2,0.5-0.3,0.7-0.3c0.3,0,0.6,0.1,0.9,0.4C463,616.9,463.1,617.2,463.1,617.5"/>
								<path d="M475.4,615.3c0,0.8-0.1,1.6-0.4,2.3c-0.3,0.7-0.6,1.3-1.2,1.8c-0.5,0.5-1.1,0.9-1.8,1.2c-0.7,0.3-1.5,0.4-2.3,0.4
									c-0.9,0-1.6-0.1-2.3-0.4c-0.7-0.3-1.3-0.7-1.8-1.2c-0.5-0.5-0.9-1.1-1.2-1.8c-0.2-0.7-0.4-1.5-0.4-2.3
									c0-0.9,0.1-1.7,0.4-2.4c0.3-0.7,0.6-1.3,1.1-1.8c0.5-0.5,1.1-0.9,1.8-1.2c0.7-0.3,1.5-0.4,2.3-0.4c0.9,0,1.6,0.1,2.3,0.4
									c0.7,0.3,1.3,0.7,1.8,1.2c0.5,0.5,0.9,1.1,1.1,1.8C475.2,613.6,475.4,614.4,475.4,615.3 M472.5,615.3c0-1.2-0.3-2.1-0.8-2.7
									c-0.5-0.6-1.2-1-2.1-1c-0.6,0-1,0.1-1.5,0.4c-0.4,0.3-0.7,0.7-1,1.3c-0.2,0.6-0.3,1.2-0.3,2c0,0.7,0.1,1.4,0.3,1.9
									c0.2,0.6,0.6,1,1,1.3c0.4,0.3,0.9,0.4,1.5,0.4c0.9,0,1.5-0.3,2.1-1C472.3,617.3,472.5,616.4,472.5,615.3"/>
								<path d="M486.2,615.5v3.8c0,0.6-0.1,1-0.4,1.3c-0.3,0.3-0.6,0.5-1.1,0.5c-0.4,0-0.8-0.1-1-0.5c-0.3-0.3-0.4-0.7-0.4-1.3
									v-4.5c0-0.7,0-1.3-0.1-1.7c0-0.4-0.2-0.7-0.4-1c-0.2-0.3-0.6-0.4-1-0.4c-0.9,0-1.5,0.3-1.8,1c-0.3,0.6-0.4,1.6-0.4,2.7v3.8
									c0,0.6-0.1,1-0.4,1.3c-0.3,0.3-0.6,0.5-1.1,0.5c-0.4,0-0.8-0.1-1.1-0.5c-0.3-0.3-0.4-0.7-0.4-1.3v-8.1
									c0-0.5,0.1-0.9,0.4-1.2c0.3-0.3,0.6-0.4,1-0.4c0.4,0,0.7,0.1,1,0.4c0.3,0.3,0.4,0.6,0.4,1.1v0.3c0.5-0.6,1-1,1.6-1.3
									c0.6-0.3,1.2-0.4,1.9-0.4c0.7,0,1.3,0.1,1.8,0.4c0.5,0.3,0.9,0.7,1.3,1.3c0.5-0.6,1-1,1.5-1.3c0.5-0.3,1.2-0.4,1.8-0.4
									c0.8,0,1.4,0.2,2,0.5c0.6,0.3,1,0.7,1.3,1.3c0.2,0.5,0.4,1.3,0.4,2.4v5.5c0,0.6-0.1,1-0.4,1.3c-0.3,0.3-0.6,0.5-1.1,0.5
									c-0.4,0-0.8-0.1-1.1-0.5c-0.3-0.3-0.4-0.7-0.4-1.3v-4.8c0-0.6,0-1.1-0.1-1.5c-0.1-0.4-0.2-0.7-0.4-0.9
									c-0.2-0.2-0.6-0.4-1-0.4c-0.4,0-0.7,0.1-1.1,0.3c-0.3,0.2-0.6,0.5-0.8,0.9C486.3,613.4,486.2,614.3,486.2,615.5"/>
								<path class="st5" d="M360.9,622c0,0-1.6-0.2-3.1-1.9c-1.5-1.7-1.8-3.4-1.8-3.4s1.9,0.5,3.3,0.6c2.4,0.3,4.7,0.1,5.7,0
									c2.3-0.3,3.4-0.7,3.9-0.8c2.9-0.7,5.6-2.6,5.6-2.6s0.4,2.2-1.3,4.6c-0.6,0.9-1.9,2-3.3,2.7C365,623.4,360.9,622,360.9,622"
									/>
								<path class="st5" d="M372.6,609.8c-0.5-0.6-2.3-3.7-5.9-4.1c-0.9-0.1-5.8,0.1-8.7,2.8c-0.3,0.3-1.8,1.6-2.3,4
									c-0.4,1.9,0.2,4,0.2,4s3.2,0.7,5.7,0.6c3.9-0.1,5.8-0.4,7.8-1c3-0.9,5.1-2.4,5.1-2.4S373.2,610.4,372.6,609.8 M361.5,614.4
									c-1.6,0.1-3-1.1-3.1-2.8c-0.1-1.6,1.1-3,2.8-3.1c1.6-0.1,3.1,1.1,3.1,2.8C364.3,612.9,363.1,614.3,361.5,614.4 M369.8,612.3
									c-1,0.1-1.9-0.7-2-1.7c-0.1-1,0.7-1.9,1.8-2c1-0.1,1.9,0.7,2,1.7C371.6,611.4,370.9,612.2,369.8,612.3"/>
								<path class="st5" d="M371.2,607.7l0.9-1.1c0,0,1.3,0.6,2.1,1.8c0.8,1.2,1.4,2.3,1.4,2.3l-1.6,0.9c0,0-0.5-1.2-1.2-2.1
									C372.2,608.6,371.2,607.7,371.2,607.7"/>
								<path class="st5" d="M374.2,608.4c0.2-0.1,0.7-0.2,0.6-0.5c0-0.3-0.2-1,0.4-1.3c0.7-0.2,0.3,0.2,0.1,0.5
									c-0.2,0.3-0.2,0.5-0.1,0.9c0,0.4-0.3,0.6-0.7,0.8C374,609.1,373.9,608.6,374.2,608.4"/>
								<path class="st5" d="M356.9,609.1c0,0-1.1,1.3-1.4,2.4c-0.3,1.1-0.2,2.5-0.2,2.5l-1.6-0.6c0,0-0.1-1.6,0.6-2.9
									c0.8-1.4,1.9-2.1,1.9-2.1L356.9,609.1z"/>
								<path class="st5" d="M354.6,610.6c-0.3-0.2-0.3-0.6-0.5-0.8c-0.2-0.3-0.3-0.1-0.7-0.1c-0.5,0-0.5-0.2-0.6-0.3
									c-0.1-0.1-0.2,0.4-0.2,0.4s0.1,0.4,0.6,0.4c0.5,0,0.5-0.2,0.7,0.2c0.2,0.5,0.6,0.8,0.6,0.8S354.8,610.8,354.6,610.6"/>
								<path class="st5" d="M363.1,604.6c2.6-0.7,4.3,0.1,4.3,0.1l-0.1,0.8c0,0-1.9-0.1-3.5,0.1c-1.5,0.2-2.2,0.7-2.2,0.7l-0.3-0.8
									C361.2,605.5,362,604.9,363.1,604.6"/>
								<polygon class="st5" points="363.9,603.5 364.3,603.4 364.8,604.7 364.4,604.8 								"/>
								<path class="st5" d="M375.6,605.9c0.4,0,0.7,0.3,0.7,0.6c0,0.4-0.3,0.7-0.6,0.7c-0.4,0-0.7-0.3-0.7-0.6
									C374.9,606.3,375.2,606,375.6,605.9"/>
								<path class="st5" d="M352.3,608.5c0.4,0,0.7,0.3,0.7,0.6c0,0.4-0.3,0.7-0.6,0.7c-0.4,0-0.7-0.3-0.7-0.6
									C351.7,608.8,352,608.5,352.3,608.5"/>
								<path class="st5" d="M364.2,601.8c0.6,0,1.1,0.4,1.1,1c0,0.6-0.4,1.1-1,1.1c-0.6,0-1.1-0.4-1.1-1
									C363.2,602.3,363.6,601.8,364.2,601.8"/>
								<path d="M279.7,619.5c0,0.7-0.4,1.1-1,1.1c-0.5,0-0.9-0.3-1-0.8c-0.4,0.6-1.1,0.9-1.8,0.9c-2,0-3.3-1.9-3.3-3.7
									c0-1.9,1.1-3.9,3.2-3.9c0.7,0,1.4,0.2,1.9,0.7V611c0-0.7,0.4-1.1,1-1.1c0.6,0,1,0.4,1,1.1V619.5z M276.2,614.8
									c-1,0-1.5,1.1-1.5,2c0,0.9,0.5,2,1.5,2c1.1,0,1.6-1.1,1.6-2.1C277.7,615.8,277.2,614.8,276.2,614.8"/>
								<path d="M282.4,617.5c0.1,1,1,1.4,1.9,1.4c1,0,1.7-0.8,2.2-0.8c0.4,0,0.8,0.4,0.8,0.9c0,0.9-1.8,1.7-3.2,1.7
									c-2.2,0-3.7-1.6-3.7-3.8c0-2,1.5-3.8,3.6-3.8c2.2,0,3.6,2,3.6,3.6c0,0.6-0.3,0.9-0.9,0.9H282.4z M285.5,616.2
									c-0.1-0.9-0.7-1.5-1.6-1.5c-0.9,0-1.5,0.7-1.6,1.5H285.5z"/>
								<path d="M292.4,615.3c-0.4,0-1.1-0.6-1.8-0.6c-0.4,0-0.7,0.2-0.7,0.6c0,0.9,3.4,0.8,3.4,3c0,1.3-1.1,2.3-2.8,2.3
									c-1.1,0-2.8-0.6-2.8-1.5c0-0.3,0.3-0.9,0.9-0.9c0.8,0,1.1,0.7,2.1,0.7c0.6,0,0.8-0.2,0.8-0.6c0-0.9-3.4-0.8-3.4-3
									c0-1.4,1.1-2.3,2.7-2.3c1,0,2.5,0.5,2.5,1.4C293.2,614.9,292.9,615.3,292.4,615.3"/>
								<path d="M296.2,611.2c0,0.6-0.5,1.1-1.1,1.1c-0.6,0-1.1-0.5-1.1-1.1c0-0.6,0.5-1.1,1.1-1.1
									C295.7,610.1,296.2,610.6,296.2,611.2 M294.1,614.2c0-0.7,0.4-1.1,1-1.1c0.6,0,1,0.4,1,1.1v5.3c0,0.7-0.4,1.1-1,1.1
									c-0.6,0-1-0.4-1-1.1V614.2z"/>
								<path d="M304,619.9c0,2.4-1.6,3.6-3.8,3.6c-0.8,0-3.1-0.4-3.1-1.5c0-0.4,0.4-0.9,0.8-0.9c0.6,0,1.3,0.6,2.5,0.6
									c1,0,1.7-0.6,1.7-1.6v-0.5h0c-0.4,0.6-1.1,0.9-2,0.9c-2.1,0-3.1-1.8-3.1-3.8c0-2,1.3-3.9,3.3-3.9c0.7,0,1.4,0.3,1.8,0.9
									c0.1-0.5,0.4-0.8,1-0.8c0.6,0,1,0.4,1,1.1V619.9z M300.4,614.8c-1,0-1.5,1.1-1.5,2c0,1.1,0.5,2,1.5,2c1.1,0,1.6-1,1.6-2
									C302,615.9,301.5,614.8,300.4,614.8"/>
								<path d="M305.1,614.2c0-0.7,0.4-1.1,1-1.1c0.5,0,0.8,0.3,0.9,0.7c0.4-0.5,1-0.8,1.9-0.8c1.6,0,2.7,1,2.7,2.7v3.8
									c0,0.7-0.4,1.1-1,1.1c-0.6,0-1-0.4-1-1.1V616c0-0.9-0.6-1.4-1.3-1.4c-0.8,0-1.3,0.6-1.3,1.4v3.5c0,0.7-0.4,1.1-1,1.1
									c-0.6,0-1-0.4-1-1.1V614.2z"/>
								<path d="M314.3,617.5c0.1,1,1,1.4,1.9,1.4c1,0,1.7-0.8,2.2-0.8c0.4,0,0.8,0.4,0.8,0.9c0,0.9-1.8,1.7-3.2,1.7
									c-2.2,0-3.7-1.6-3.7-3.8c0-2,1.5-3.8,3.6-3.8c2.2,0,3.6,2,3.6,3.6c0,0.6-0.3,0.9-0.9,0.9H314.3z M317.5,616.2
									c-0.1-0.9-0.7-1.5-1.6-1.5c-0.9,0-1.5,0.7-1.6,1.5H317.5z"/>
								<path d="M326.9,619.5c0,0.7-0.4,1.1-1,1.1c-0.5,0-0.9-0.3-1-0.8c-0.4,0.6-1.1,0.9-1.8,0.9c-2,0-3.3-1.9-3.3-3.7
									c0-1.9,1.1-3.9,3.2-3.9c0.7,0,1.4,0.2,1.9,0.7V611c0-0.7,0.4-1.1,1-1.1c0.6,0,1,0.4,1,1.1V619.5z M323.4,614.8
									c-1,0-1.5,1.1-1.5,2c0,0.9,0.5,2,1.5,2c1.1,0,1.6-1.1,1.6-2.1C325,615.8,324.5,614.8,323.4,614.8"/>
								<path d="M331.8,611c0-0.7,0.4-1.1,1-1.1c0.6,0,1,0.4,1,1.1v2.7c0.5-0.4,1.2-0.7,1.9-0.7c2.1,0,3.2,2,3.2,3.9
									c0,1.9-1.3,3.7-3.3,3.7c-0.7,0-1.4-0.3-1.8-0.9c-0.1,0.5-0.4,0.8-1,0.8c-0.6,0-1-0.4-1-1.1V611z M335.3,618.8
									c1,0,1.5-1.1,1.5-2c0-0.9-0.5-2-1.5-2c-1.1,0-1.6,1-1.6,2C333.8,617.7,334.2,618.8,335.3,618.8"/>
								<path d="M339.2,614.4c-0.1-0.1-0.1-0.3-0.1-0.5c0-0.5,0.5-0.9,0.9-0.9c0.5,0,0.8,0.3,1,0.7l1.4,3.7l1.5-3.7
									c0.2-0.4,0.5-0.7,1-0.7c0.4,0,0.9,0.4,0.9,0.9c0,0.2,0,0.4-0.1,0.5l-3.3,8.3c-0.2,0.4-0.5,0.8-0.9,0.8c-0.7,0-1-0.4-1-0.9
									c0-0.2,0.1-0.4,0.1-0.6l0.9-2.2L339.2,614.4z"/>
							</g>
						</g>
					</g>
				</g>
			</g>
		</g>
	</g>
</g>
</svg>
