<?xml version="1.0" encoding="utf-8"?>
<!-- Generator: Adobe Illustrator 19.0.0, SVG Export Plug-In . SVG Version: 6.00 Build 0)  -->
<svg version="1.1" id="Capa_1" xmlns="http://www.w3.org/2000/svg" xmlns:xlink="http://www.w3.org/1999/xlink" x="0px" y="0px"
	 viewBox="0 0 700 300" style="enable-background:new 0 0 700 300;" xml:space="preserve">
<style type="text/css">
	.st0{fill:#98BB6E;}
	.st1{fill:#5B762E;}
	.st2{fill:#E0E2E3;}
</style>
<polygon id="XMLID_7_" class="st0" points="322.2,138.4 259.2,103 275.7,76.1 352.9,119.7 "/>
<polygon id="XMLID_6_" class="st0" points="425.1,101.1 325.4,46.1 356,27.7 472.3,95 "/>
<polygon id="XMLID_8_" class="st1" points="358.6,64.4 307.9,95 275.7,76.1 325.4,46.1 "/>
<polygon id="XMLID_3_" class="st1" points="348.5,108.9 380.2,89.2 442.5,125.3 426.6,152 "/>
<ellipse id="XMLID_10_" class="st2" cx="347.9" cy="215.3" rx="74.7" ry="5.3"/>
<g id="XMLID_15_">
	<path id="XMLID_16_" class="st1" d="M40.7,265c0,3.5-3.3,5.2-9.9,5.2H17.6c-1.1,0-1.7-0.4-1.7-1.3s0.6-1.3,1.7-1.3h13.2
		c4.2,0,6.4-0.9,6.4-2.7v-2.3c0-1.8-2-2.6-6-2.6H25c-5.9,0-8.9-1.6-8.9-4.8v-2.4c0-3.3,3-5,9.1-5h3.7c1.1,0,1.6,0.4,1.6,1.3
		c0,0.9-0.5,1.3-1.6,1.3h-3.6c-3.8,0-5.6,0.8-5.6,2.5v2c0,1.6,1.8,2.4,5.3,2.4h5.9c6.6,0,9.8,1.7,9.8,5.1V265z"/>
	<path id="XMLID_18_" class="st1" d="M73.2,256.6c0,4.2-3.4,6.3-10.1,6.3H49.8v6.1c0,0.9-0.6,1.4-1.8,1.4c-1.2,0-1.7-0.5-1.7-1.4
		v-20.2c0-0.8,0.5-1.1,1.5-1.1h15.3c6.8,0,10.1,2.1,10.1,6.3V256.6z M49.8,260.2h13.4c4.3,0,6.5-1.2,6.5-3.7V254
		c0-2.5-2.2-3.7-6.5-3.7H50.1c-0.2,0-0.3,0.1-0.3,0.2V260.2z"/>
	<path id="XMLID_21_" class="st1" d="M88.2,270.2c-6.4,0-9.6-2.1-9.6-6.3v-10.1c0-4.1,3.1-6.2,9.4-6.2h4.7c1.1,0,1.6,0.4,1.6,1.3
		c0,0.9-0.5,1.3-1.6,1.3h-4.6c-4,0-5.9,1.2-5.9,3.6v3.7h19.4c1,0,1.6,0.4,1.6,1.3c0,0.8-0.5,1.3-1.6,1.3H82.2v3.7
		c0,2.5,2.1,3.7,6.2,3.7h13.2c1.1,0,1.7,0.4,1.7,1.3s-0.6,1.3-1.7,1.3H88.2z"/>
	<path id="XMLID_23_" class="st1" d="M118.5,270.2c-6.4,0-9.6-2.1-9.6-6.3v-10.1c0-4.1,3.1-6.2,9.4-6.2h12.5c1.1,0,1.6,0.4,1.6,1.3
		c0,0.9-0.5,1.3-1.6,1.3h-12.4c-4,0-5.9,1.2-5.9,3.6v10c0,2.5,2.1,3.7,6.2,3.7h12.2c1.1,0,1.6,0.4,1.6,1.3s-0.5,1.3-1.6,1.3H118.5z"
		/>
	<path id="XMLID_25_" class="st1" d="M138.2,248.8c0-0.9,0.6-1.4,1.8-1.4c1.1,0,1.7,0.5,1.7,1.4V269c0,0.9-0.6,1.4-1.8,1.4
		c-1.2,0-1.7-0.5-1.7-1.4V248.8z"/>
	<path id="XMLID_27_" class="st1" d="M170,264.1h-16.5l-3.4,5.2c-0.4,0.6-1,0.9-1.7,0.9c-0.5,0-1-0.1-1.3-0.3
		c-0.3-0.2-0.5-0.6-0.5-1c0-0.2,0-0.3,0.1-0.5c0-0.1,0.1-0.3,0.3-0.5l12.9-19.7c0.2-0.3,0.5-0.5,0.8-0.7c0.3-0.1,0.7-0.2,1-0.2
		c0.8,0,1.3,0.3,1.7,0.9l12.9,19.6c0.2,0.2,0.3,0.4,0.3,0.6c0.1,0.2,0.1,0.3,0.1,0.5c0,0.4-0.2,0.8-0.5,1c-0.3,0.2-0.8,0.3-1.3,0.3
		c-0.7,0-1.2-0.3-1.7-0.9L170,264.1z M155.2,261.6h13.2l-6.6-10.3L155.2,261.6z"/>
	<path id="XMLID_30_" class="st1" d="M190.4,270.2c-6.4,0-9.6-2.1-9.6-6.4v-15c0-0.9,0.6-1.4,1.7-1.4c1.2,0,1.8,0.5,1.8,1.4v14.9
		c0,2.5,2.1,3.8,6.2,3.8H204c1.1,0,1.6,0.4,1.6,1.3s-0.5,1.3-1.6,1.3H190.4z"/>
	<path id="XMLID_32_" class="st1" d="M224.5,247.4c0.3,0,0.7,0.1,0.9,0.2c0.3,0.1,0.5,0.3,0.8,0.5l19.7,17.3v-16.7
		c0-0.9,0.6-1.3,1.8-1.3c1.2,0,1.8,0.4,1.8,1.3V269c0,0.9-0.6,1.4-1.9,1.4c-0.4,0-0.7-0.1-0.9-0.2c-0.3-0.1-0.5-0.3-0.8-0.6
		l-19.6-17.3V269c0,0.9-0.6,1.4-1.8,1.4c-1.2,0-1.7-0.5-1.7-1.4v-20.1C222.7,247.9,223.3,247.4,224.5,247.4z"/>
	<path id="XMLID_34_" class="st1" d="M265.4,270.2c-6.4,0-9.6-2.1-9.6-6.4v-15c0-0.9,0.6-1.4,1.8-1.4c1.2,0,1.8,0.5,1.8,1.4v14.9
		c0,2.5,2.1,3.8,6.2,3.8h7.1c4.1,0,6.2-1.3,6.2-3.8v-14.9c0-0.9,0.6-1.4,1.8-1.4c1.2,0,1.8,0.5,1.8,1.4v15c0,4.3-3.2,6.4-9.6,6.4
		H265.4z"/>
	<path id="XMLID_36_" class="st1" d="M297.8,250.3h-8.9c-1.1,0-1.6-0.4-1.6-1.3c0-0.9,0.5-1.3,1.6-1.3h21.3c1.1,0,1.7,0.4,1.7,1.3
		c0,0.9-0.6,1.4-1.7,1.4h-8.9V269c0,0.9-0.6,1.4-1.7,1.4c-1.2,0-1.8-0.5-1.8-1.4V250.3z"/>
	<path id="XMLID_38_" class="st1" d="M320.2,261.3v7.6c0,0.9-0.6,1.4-1.8,1.4c-1.2,0-1.7-0.5-1.7-1.4v-20.2c0-0.8,0.5-1.1,1.5-1.1
		h15.3c6.8,0,10.1,1.8,10.1,5.5v2.4c0,3.6-3.4,5.4-10.1,5.4h-7.8l15.1,6.6c0.7,0.3,1,0.7,1,1.3c0,0.4-0.2,0.8-0.5,1
		c-0.3,0.2-0.8,0.4-1.3,0.4c-0.2,0-0.4,0-0.6-0.1c-0.2,0-0.4-0.1-0.6-0.3L320.2,261.3z M320.2,258.5h13.4c4.3,0,6.5-1,6.5-3v-2.3
		c0-2-2.2-2.9-6.5-2.9h-13.2c-0.2,0-0.3,0.1-0.3,0.2V258.5z"/>
	<path id="XMLID_41_" class="st1" d="M349.5,248.8c0-0.9,0.6-1.4,1.8-1.4c1.1,0,1.7,0.5,1.7,1.4V269c0,0.9-0.6,1.4-1.8,1.4
		c-1.2,0-1.7-0.5-1.7-1.4V248.8z"/>
	<path id="XMLID_43_" class="st1" d="M368.9,270.2c-6.4,0-9.6-2.1-9.6-6.3v-10.1c0-4.1,3.1-6.2,9.4-6.2h4.7c1.1,0,1.6,0.4,1.6,1.3
		c0,0.9-0.5,1.3-1.6,1.3h-4.6c-4,0-5.9,1.2-5.9,3.6v3.7h19.4c1,0,1.6,0.4,1.6,1.3c0,0.8-0.5,1.3-1.6,1.3h-19.4v3.7
		c0,2.5,2.1,3.7,6.2,3.7h13.2c1.1,0,1.7,0.4,1.7,1.3s-0.6,1.3-1.7,1.3H368.9z"/>
	<path id="XMLID_45_" class="st1" d="M391.5,247.4c0.3,0,0.7,0.1,0.9,0.2c0.3,0.1,0.5,0.3,0.8,0.5l19.7,17.3v-16.7
		c0-0.9,0.6-1.3,1.8-1.3s1.8,0.4,1.8,1.3V269c0,0.9-0.6,1.4-1.9,1.4c-0.4,0-0.7-0.1-0.9-0.2s-0.5-0.3-0.8-0.6l-19.6-17.3V269
		c0,0.9-0.6,1.4-1.8,1.4c-1.2,0-1.7-0.5-1.7-1.4v-20.1C389.7,247.9,390.3,247.4,391.5,247.4z"/>
	<path id="XMLID_47_" class="st1" d="M431.9,250.3H423c-1.1,0-1.6-0.4-1.6-1.3c0-0.9,0.5-1.3,1.6-1.3h21.3c1.1,0,1.7,0.4,1.7,1.3
		c0,0.9-0.6,1.4-1.7,1.4h-8.9V269c0,0.9-0.6,1.4-1.7,1.4c-1.2,0-1.8-0.5-1.8-1.4V250.3z"/>
	<path id="XMLID_49_" class="st1" d="M474.8,265c0,3.5-3.3,5.2-9.9,5.2h-13.2c-1.1,0-1.7-0.4-1.7-1.3s0.6-1.3,1.7-1.3h13.2
		c4.2,0,6.4-0.9,6.4-2.7v-2.3c0-1.8-2-2.6-6-2.6h-6.2c-5.9,0-8.9-1.6-8.9-4.8v-2.4c0-3.3,3-5,9.1-5h3.7c1.1,0,1.6,0.4,1.6,1.3
		c0,0.9-0.5,1.3-1.6,1.3h-3.6c-3.8,0-5.6,0.8-5.6,2.5v2c0,1.6,1.8,2.4,5.3,2.4h5.9c6.6,0,9.8,1.7,9.8,5.1V265z"/>
	<path id="XMLID_51_" class="st1" d="M502,270.2c-6.4,0-9.5-2.1-9.5-6.4v-15c0-0.9,0.6-1.4,1.8-1.4c1.2,0,1.8,0.5,1.8,1.4v14.9
		c0,2.5,2.1,3.8,6.2,3.8h7.1c4.1,0,6.2-1.3,6.2-3.8v-14.9c0-0.9,0.6-1.4,1.8-1.4c1.2,0,1.8,0.5,1.8,1.4v15c0,4.3-3.2,6.4-9.5,6.4
		H502z"/>
	<path id="XMLID_53_" class="st1" d="M549.5,265c0,3.5-3.3,5.2-9.9,5.2h-13.2c-1.1,0-1.7-0.4-1.7-1.3s0.6-1.3,1.7-1.3h13.2
		c4.2,0,6.4-0.9,6.4-2.7v-2.3c0-1.8-2-2.6-6-2.6h-6.2c-5.9,0-8.9-1.6-8.9-4.8v-2.4c0-3.3,3-5,9.1-5h3.7c1.1,0,1.6,0.4,1.6,1.3
		c0,0.9-0.5,1.3-1.6,1.3H534c-3.8,0-5.6,0.8-5.6,2.5v2c0,1.6,1.8,2.4,5.3,2.4h5.9c6.6,0,9.8,1.7,9.8,5.1V265z"/>
	<path id="XMLID_55_" class="st1" d="M576.9,264.1h-16.5l-3.4,5.2c-0.4,0.6-1,0.9-1.7,0.9c-0.5,0-1-0.1-1.3-0.3
		c-0.3-0.2-0.5-0.6-0.5-1c0-0.2,0-0.3,0.1-0.5c0-0.1,0.1-0.3,0.3-0.5l12.9-19.7c0.2-0.3,0.5-0.5,0.8-0.7c0.3-0.1,0.7-0.2,1-0.2
		c0.8,0,1.3,0.3,1.7,0.9l12.9,19.6c0.2,0.2,0.3,0.4,0.3,0.6c0.1,0.2,0.1,0.3,0.1,0.5c0,0.4-0.2,0.8-0.5,1c-0.3,0.2-0.8,0.3-1.3,0.3
		c-0.7,0-1.3-0.3-1.7-0.9L576.9,264.1z M562.1,261.6h13.2l-6.6-10.3L562.1,261.6z"/>
	<path id="XMLID_58_" class="st1" d="M590.9,273.2c-0.2,0.8-0.7,1.1-1.5,1.1c-0.8,0-1.3-0.4-1.3-1.1c0-0.2,0-0.7,0.1-1.2l0.3-3.2
		c0-0.5,0.2-0.9,0.5-1.1s0.7-0.4,1.3-0.4c1.2,0,1.8,0.5,1.8,1.5c0,0.2,0,0.4-0.1,0.5c0,0.2-0.1,0.4-0.2,0.7L590.9,273.2z"/>
	<path id="XMLID_60_" class="st1" d="M610.4,248.8c0-0.9,0.6-1.4,1.8-1.4c1.1,0,1.7,0.5,1.7,1.4V269c0,0.9-0.6,1.4-1.8,1.4
		c-1.2,0-1.7-0.5-1.7-1.4V248.8z"/>
	<path id="XMLID_62_" class="st1" d="M622.1,247.4c0.3,0,0.7,0.1,0.9,0.2c0.3,0.1,0.5,0.3,0.8,0.5l19.7,17.3v-16.7
		c0-0.9,0.6-1.3,1.8-1.3s1.8,0.4,1.8,1.3V269c0,0.9-0.6,1.4-1.9,1.4c-0.4,0-0.7-0.1-0.9-0.2c-0.2-0.1-0.5-0.3-0.8-0.6l-19.6-17.3
		V269c0,0.9-0.6,1.4-1.8,1.4c-1.2,0-1.7-0.5-1.7-1.4v-20.1C620.3,247.9,620.9,247.4,622.1,247.4z"/>
	<path id="XMLID_64_" class="st1" d="M663,270.2c-6.4,0-9.6-2.1-9.6-6.3v-10.1c0-4.1,3.1-6.2,9.4-6.2h12.5c1.1,0,1.6,0.4,1.6,1.3
		c0,0.9-0.5,1.3-1.6,1.3h-12.4c-4,0-5.9,1.2-5.9,3.6v10c0,2.5,2.1,3.7,6.2,3.7h12.2c1.1,0,1.6,0.4,1.6,1.3s-0.5,1.3-1.6,1.3H663z"/>
	<path id="XMLID_69_" class="st1" d="M686.1,268.7c0,1.1-0.7,1.6-2,1.6c-1.3,0-1.9-0.5-1.9-1.6c0-1.1,0.7-1.6,2-1.6
		C685.4,267.1,686.1,267.7,686.1,268.7z"/>
</g>
<polygon id="XMLID_66_" class="st0" points="393.4,133.7 343.2,163.9 376.5,182.8 426.6,152 "/>
<polygon id="XMLID_67_" class="st1" points="275.3,125.3 227.3,133.4 345.2,202.1 376.5,182.8 343.2,163.9 "/>
</svg>
